<!-- svg optimized with http://petercollingridge.appspot.com/svg-editor -->
  <svg xmlns="http://www.w3.org/2000/svg" version="1.1" viewBox="0 0 1000 647" preserveAspectRatio="xMidYMid meet" style="fill:none;left:0;position:absolute;stroke-linejoin:round;stroke:#000;top:0"><defs><style type="text/css">path { fill-rule: evenodd; }</style></defs><metadata><views><view h="647.8" padding="0" w="1000"><proj flip="auto" id="mercator" lon0="65.3"/><bbox h="4064.1" w="6283.2" x="-3141.6" y="-2891.1"/></view></views></metadata><g class="" id="countries"><path d="M705.1 347.4L703.2 347.1 699.3 349.7 698.2 348.6 698.4 345.7 696.4 343.6 692.8 346.7 691.9 348.3 691 347.6 689 348.7 688.1 348.3 686 347.6 684.5 347.6 683.7 347.5 682.3 346.5 681.9 347.8 679.6 348.4 679 351.2 675.3 352.8 674.7 354.3 672.6 354.8 669.8 353.5 668.6 357.7 667.9 360.1 669.1 360.6 667.9 362.4 669 367.1 671.1 367.7 671.3 369.8 668.8 372.7 673.5 374.3 680.4 373.8 684 372.5 684.1 369.8 685.7 367.9 692.3 366 692.1 364 693.3 362 695 361.2 694 359 696.6 359.1 697.2 356.6 698.6 355.2 697.6 352 699.3 350.5 706.8 348.8 708.4 348.4 708 347.4 705.1 347.4Z" data-id="AF" data-name="Afghanistan" id="AF"/><path d="M533.9 476.9L536.7 483.3 535.9 484.4 537.1 488.4 537.8 493.1 534.7 497.4 532.3 506.3 532.5 508.2 535.5 507.1 539.4 508.3 550.7 508.2 552.6 509.6 559.3 510 564.4 508.8 562.6 507 560.7 504.6 560.8 495.5 566.6 495.5 566.6 490.8 566.3 489.9 565.1 489.7 561.4 490.4 561.6 487 560.5 484.2 560.9 482.5 560.3 479.7 553.9 479.3 548.5 481.9 546 477.8 545.3 475.8 537.1 475.7 534.2 476.4 533.9 476.9ZM536 472.7L535 471.7 534.2 472.2 533 473.4 533.8 475.5 534.5 475.2 534.6 474 535 473.3 536 472.7Z" data-id="AO" data-name="Angola" id="AO"/><path d="M553.5 330.1L553.7 331.3 553.7 331.3 553.6 335.5 553.8 337.3 555.4 339.3 555.9 339.5 557.2 337.8 557.3 336.6 558.2 336.1 558.3 335.1 557.1 334.2 556.8 332.6 557.1 331.4 557.1 331.4 556.9 330 556.3 329.6 555.7 328.6 554.9 329 554.7 328.3 553.5 330.1Z" data-id="AL" data-name="Albania" id="AL"/><path d="M653.8 386.4L649.8 390.5 643.7 390.8 643.5 389.9 643.1 390.1 643.2 390.8 644.2 393.8 652.6 395.4 653.1 394.7 653.2 393.5 655 388 656.4 388 655.5 384.5 653.8 386.4Z" data-id="AE" data-name="United Arab Emirates" id="AE"/><path d="M309.6 631.7L309.6 642.2 312.6 642.2 314.3 642.3 315.7 644.1 318.3 643.8 319.6 641.4 315.7 640.2 312.1 637.4 310.7 633.9 309.6 631.7ZM313.9 524.2L314.2 525 313.3 528.1 310.2 529.6 310.6 536.9 308.6 538.9 306.8 541.8 305.8 544.7 306.1 547.8 304.4 551.1 305.6 556.8 306.4 557.4 306.4 560.5 304.8 563.7 304.8 566.6 302.7 568.8 302.8 572 303.6 575.5 301.9 576.8 300.5 583.7 301 588.2 299.9 589 300.5 593.3 301.8 594.8 300.9 596.4 301.6 601.7 300.5 607 299.1 610.5 299.4 612.6 298.5 615.2 296.4 617.1 296.6 621.7 297.6 623.3 299.4 623 299.4 626.3 300.5 628.9 307.2 629.5 309.8 630.2 311 630.4 309.1 627.8 308.2 623.2 309.4 621.2 311.9 619.5 313.7 614.5 317 612.1 317.9 608.4 315.3 607.6 312.6 604.6 313.4 601.7 315.5 599.6 318.2 599.6 319.2 593.7 321.4 591.3 324 590.1 323.2 588.2 321.7 589.4 319.8 588.2 319.4 584.5 320.5 583.6 323.1 584.9 326 584.4 327.6 583.1 327.1 581.3 327.7 578.6 327.1 576.5 330.2 576.8 335.7 576.1 339.8 574.2 342.5 569.7 342.6 568 340.9 566.5 341.3 564.1 337.8 561.2 338 559.5 338.7 553.3 339.5 550 340.2 547.4 343.9 543.1 351.2 537 351.3 534.5 349.9 532.8 348.5 533.3 348 536.1 345.5 538.5 343.3 539 337.4 537.6 340.2 532.9 339.8 531.6 336.9 530.4 333.5 528.1 331.2 527.7 326.1 522.7 325.7 522.1 322.5 522 321.5 524.4 319.8 522.2 316.2 521.5 313.9 524.2Z" data-id="AR" data-name="Argentina" id="AR"/><path d="M628.9 340.1L626.5 338.6 627.3 337.4 625.3 334.6 624.7 333.6 620.9 334.2 621.3 335.5 621.1 337.3 623.1 338.2 624.2 339.2 624.8 339.1 625.6 340.1 626.9 340.1 626.8 340.6 628 342.7 629 342.6 628.9 340.1Z" data-id="AM" data-name="Armenia" id="AM"/><path d="M694.9 618.8L695.6 616 693 615.5 691.2 614.2 690.7 619.1 694.9 618.8Z" data-id="TF" data-name="French Southern and Antarctic Lands" id="TF"/><path d="M903.3 583.5L901.4 583.2 901.4 584.9 903 588.1 903.4 590.6 905.1 593.9 909.3 591.5 910.2 592.6 910.5 589.5 911.5 588.2 911.3 583.8 905.9 584.8 903.3 583.5ZM898.2 498L898.1 495.3 895.3 489.2 894.2 490.2 893 494.1 892.5 497.8 893 501.6 890.7 508.4 888.9 509.3 884.4 506.7 883.6 506.7 875.8 501.5 877.4 497.9 877.1 496.7 879.8 494 878.6 492.5 875.2 493.7 865.6 490.9 867.6 491.8 867.7 493.3 863.9 493.5 862.3 494.5 858.9 499.9 859.5 501.4 856 501.1 852.4 498.1 848.5 500.1 845 503.1 844.6 505.3 843.4 504.7 842.5 506.1 843.5 507.5 842.3 508.1 841.2 505.6 839.2 508 839 510.8 835.2 515.1 827.9 517.2 825.7 518.3 821.6 519.2 818 521.5 816.8 523.6 816.6 521.3 815.4 523.4 814.5 529.2 816.8 533.5 816.8 535.1 814.6 533 816.7 540.7 819.1 545 818.9 546.8 820.9 551.9 821.2 553.9 820.5 558.1 819.1 558.5 819 560.5 823.5 563.3 827.3 563.4 830.9 561.5 832.5 559.7 836.4 559.2 838.9 559.8 843 559.4 844.5 556.3 849.9 553.9 852.5 554.1 859.3 551.9 864.2 551.5 866.9 553.1 868.8 553.2 872.4 555.2 875.1 559.6 875 561.4 877.2 562.8 878.2 560.1 880 559 882.2 556.1 882.4 558.6 880.9 562.2 879.5 564.1 882 563.4 883.3 561.1 884 563.6 883.1 565.2 885.7 565.7 888.3 571.4 890.1 573.6 898.3 576.4 900.7 573.8 902.2 573.2 901.8 575 905.8 577.2 911.3 572.8 914.4 572.7 916 571.5 916.9 565.5 918 563.8 920.8 556.6 922.8 555 924.6 549.7 924.5 547.8 925.9 540.7 924.6 538.1 924.7 534.4 923.9 531.9 918.5 526.4 918 523.2 916.2 522.4 915.1 523 912.8 517.2 906 513 905.1 511 902.9 502.7 903.2 501.5 900.9 499.1 899.2 500.2 898.2 498Z" data-id="AU" data-name="Australia" id="AU"/><path d="M545.8 304L544.5 304.2 539.8 305 537.7 303.6 536.7 305.5 535.7 306.1 535 308.6 531.7 309.2 527.4 309 526.6 309.2 526.7 310 526.3 311 527.5 311.7 529 311.8 530.6 312.4 531 311.6 533.7 310.9 534.3 312.3 538.3 313.4 540.6 313.7 542 312.8 544.4 312.7 544.9 312 545.9 309.4 545.3 308.5 546.9 308.5 547.1 306.8 546.8 305.3 547 304.8 545.8 304Z" data-id="AT" data-name="Austria" id="AT"/><path d="M624.2 339.2L624.7 340.6 626.1 342.2 628 342.7 626.8 340.6 626.9 340.1 625.6 340.1 624.8 339.1 624.2 339.2ZM628.7 331.4L628 331.9 629.3 333.9 625.4 333 624.7 333.6 625.3 334.6 627.3 337.4 626.5 338.6 628.9 340.1 629 342.6 632.3 340 634.1 340.8 633.2 342.5 635.6 344.2 635.5 342.4 637.5 337.6 639.8 337.3 637.6 336.1 636.2 333.5 634.7 331.6 634.7 331.6 633.1 333 632.6 334 631.4 333.7 629.5 331.5 628.7 331.4Z" data-id="AZ" data-name="Azerbaijan" id="AZ"/><path d="M584.5 466.1L584.5 466.1 583 465.9 582.2 467.5 580.5 467.3 581.2 468.6 581.2 469 582.2 471.7 582.2 471.8 582.5 471.8 583.5 470.8 585.3 467.8 584.7 467.2 584.5 466.1Z" data-id="BI" data-name="Burundi" id="BI"/><path d="M509.2 292.9L507 293.8 508.7 295.4 511.9 299.2 513.3 298.9 515.7 300.8 516 298.4 516.8 298.3 517.1 295.3 515.6 294.3 513.8 292.4 511.2 293.3 509.2 292.9 509.2 292.9Z" data-id="BE" data-name="Belgium" id="BE"/><path d="M507.9 425.2L506.9 425.2 506 426.1 505.4 426.9 504 427.2 503.4 428.4 502.5 428.7 502.1 430.2 504.6 434 504.5 440.4 505.2 442.4 507.5 442 507.6 435.7 510.5 429.5 509.9 427.8 510 426.9 507.9 425.2Z" data-id="BJ" data-name="Benin" id="BJ"/><path d="M499.3 417.6L494.5 418.6 490.2 422.1 488.9 421.7 487.7 424.4 485.5 426.7 484.8 428.9 485 430.5 486.3 431.1 486.7 432.1 490.3 431.8 492.2 432.6 491.8 430.4 491.8 428.8 498.8 428.5 500.1 428.7 502.5 428.7 503.4 428.4 504 427.2 505.4 426.9 506 426.1 506 424.1 502.8 423.5 500.8 418.9 501 417.5 499.3 417.6Z" data-id="BF" data-name="Burkina Faso" id="BF"/><path d="M755.6 392L754.3 393.9 752.8 392.3 754.9 390.4 756.2 387.8 749.4 387 749.1 384.8 745.6 383.3 744.6 385.4 746.7 387 744.3 389.3 746 390.1 745.5 391.9 746.9 396.7 748 397 750.4 397.3 751 394.4 753.5 394.6 755.4 399.3 756.2 400.8 756 398.4 757 398.9 757 396.7 755.6 392Z" data-id="BD" data-name="Bangladesh" id="BD"/><path d="M562.8 322.3L562.2 323.2 562.4 324.6 563.8 326.3 562.5 329.1 562.1 329.6 563.5 330.8 563.7 333.3 565.7 333.4 567.9 332.4 569.9 333.7 572.4 333.3 572.4 331.5 575.3 330.3 577.6 330.8 576.8 328.7 577.8 326 579.2 324.4 575.6 322.6 570.9 324.5 563.6 323.9 562.8 322.3Z" data-id="BG" data-name="Bulgaria" id="BG"/><path d="M285 391.6L283.1 387.1 282.5 389.1 285 391.6ZM284.2 382.9L281 382.3 281.1 383.4 284.2 382.9ZM286.4 382.9L285.5 383.1 285.5 384.7 286.4 382.9Z" data-id="BS" data-name="Bahamas" id="BS"/><path d="M551.5 328.4L551.9 326.3 552.8 325.4 553.3 325.1 554 324.9 554.4 323.1 553 321.6 553.7 319.9 552.7 319.9 552.7 319.9 551.5 319 545.3 319.4 544.3 318.4 543.7 320.1 549 327 551.5 328.4Z" data-id="BA" data-name="Bosnia and Herzegovina" id="BA"/><path d="M578.1 270.3L575.2 272.2 573.5 273 573.7 275.2 571.5 276.7 570.8 279.4 567.8 281.2 565.1 281.2 565.3 283.3 566 286.9 564.3 287.8 565.2 289.9 565.3 291.9 566.6 291.7 568.1 290.5 573 290.8 576.1 291.8 580.4 291.8 581.1 292.8 584.7 293 585.8 289.8 588.2 289.5 588.2 289.5 587.5 286.6 586.8 285.1 587.4 284.7 589.6 284.8 590.7 283.8 587 280 585.3 276.9 585.6 273.3 582.9 272.2 581.5 272.7 581.1 271.5 578.1 270.3Z" data-id="BY" data-name="Belarus" id="BY"/><path d="M253.9 413.8L254.9 412.9 255.1 409.7 255.1 407.6 255.1 407.2 254.6 407.2 252.7 408.8 252.8 409.2 252.7 411.5 252.5 414.8 253.4 414.8 253.9 413.8Z" data-id="BZ" data-name="Belize" id="BZ"/><path d="M339.5 516L340.5 510.7 338.5 505.3 333.2 505.1 332.1 501.8 332.9 501.7 332.2 498 328.8 497.2 324.7 494.7 321.6 494.3 318.6 491.7 318.8 486.6 315.2 487.1 310.7 490.2 309.2 490.2 307.2 490 309.6 494.5 308.8 499.9 307.7 501.4 307.5 503.4 308.7 505.8 307 509 308.4 510.9 308.7 513.1 310.2 514.3 309.3 517.2 310.8 520.5 311.9 524.6 313.9 524.2 316.2 521.5 319.8 522.2 321.5 524.4 322.5 522 325.7 522.1 326.1 522.7 327.2 519.2 328.6 515 333.5 514.1 336 514.2 338.6 515.7 338.7 516.6 339.5 516Z" data-id="BO" data-name="Bolivia" id="BO"/><path d="M342.5 454.3L337.6 455.9 336.3 455.8 333.7 451.8 334.9 448.4 333 444.9 331.6 445 331.9 445.8 330.9 446.8 325.8 448.3 325 449 320.2 448.2 321.5 448.9 322.3 454.1 318.7 456.4 316 457.4 314.5 455.9 314 456.3 311.8 454.7 306.4 454.7 306.4 456.4 308 456.7 305.8 457.9 305.8 459.9 307.4 463.7 306.2 471.4 303.7 471.2 297.8 474.1 297.2 477.9 295.5 478.7 294.8 480.4 297.5 484.6 296.9 485.8 298.7 486 299.8 487.5 302.2 487.5 304.5 485.9 304.3 490.1 305.6 490.5 307.2 490 309.2 490.2 310.7 490.2 315.2 487.1 318.8 486.6 318.6 491.7 321.6 494.3 324.7 494.7 328.8 497.2 332.2 498 332.9 501.7 332.1 501.8 333.2 505.1 338.5 505.3 340.5 510.7 339.5 516 338.7 516.6 339.5 518.2 339.3 522.3 342.2 522.8 343.4 522.3 347.4 528 348.4 527.5 349 531.6 348.5 533.3 349.9 532.8 351.3 534.5 351.2 537 343.9 543.1 340.2 547.4 342 547.1 344.8 549.6 345.8 549.5 352.4 555.6 351.2 557.1 352 559 353.8 557.1 355.1 554 359.4 549.9 362.5 544.2 365.6 537.8 365.5 533.8 367.8 530.7 371.1 528.3 374.2 527.4 376.2 526.1 380.5 524.9 383.5 524.9 384.2 523.1 386.4 521.8 386.9 518.7 389.7 514.9 390.2 511 392.2 503.4 392 498.1 395.5 493.4 397.3 490.2 402.6 484.5 403.7 479.8 402.3 474.6 401.3 473.7 396.8 472.8 393.2 469.7 389.1 467.4 385 467.5 379.6 466 376.4 466.9 376.8 465.4 375.5 463.7 367.4 461 365.3 462.9 365.2 460.1 360.2 459.6 359.4 458.8 361.5 456.5 361.4 454.6 359.9 454.2 357.7 447.8 356.7 447.9 353.2 453.5 351.8 453.7 350 453.6 348.8 453 347.2 452.4 345.9 452.7 344.8 452.5 344.7 454.4 343.2 454.2 342.5 454.3Z" data-id="BR" data-name="Brazil" id="BR"/><path d="M817.8 445.8L816.7 446.9 818 448.3 819.9 447.4 820.2 444.3 817.8 445.8Z" data-id="BN" data-name="Brunei Darussalam" id="BN"/><path d="M753.1 378.4L751.6 378.3 749.7 377.5 748.2 378.3 746.3 380.7 746.4 381.3 748.9 382.5 755.3 382.1 755.4 380.2 754.3 379.2 753.1 378.4Z" data-id="BT" data-name="Bhutan" id="BT"/><path d="M569.6 509.2L568 509.9 565.4 511 564.3 509.8 558 510.9 557.9 521.4 555.2 521.5 555.2 530.4 555.9 530.8 557.6 533.7 557.9 536.7 559.9 536.4 563.3 532.6 564.7 531.9 567.1 533.1 569.4 533.3 571.9 530.1 573.5 529.9 575.2 526.7 577.7 524.5 581.6 522.3 579.9 520.9 577.7 520.5 575.7 517.2 572.6 514 571.1 511.8 570.1 509.4 569.6 509.2Z" data-id="BW" data-name="Botswana" id="BW"/><path d="M566 435.3L565.1 434.5 565.3 431.3 563.7 429.5 563.4 428.3 561.7 428.8 560.3 430 558.2 433 555.6 434.3 552.2 434.4 552.4 435.4 549.8 437.5 544.7 438.6 542.4 438.8 541 441.6 540.3 442.1 540.2 446.3 544 451.1 544.1 452.3 544.4 453.1 545.9 450.6 547.5 449.1 549.4 449.5 551.2 449.7 551.4 447.8 554 445.5 562.1 448.2 567.7 445.2 575 445.2 575.9 444.9 575.5 444 573.4 442.9 569.7 438.6 568.1 436.5 566.3 435.4 566 435.3Z" data-id="CF" data-name="Central African Republic" id="CF"/><path d="M323.4 313.2L322.5 311.2 321.4 312.5 322.1 313.8 325.6 315.5 328 313.6 323.4 313.2ZM328.6 302.6L328.5 301.9 325.7 300.1 322 299 321.1 299.4 323.6 301.4 327.2 302.7 328.6 302.6ZM157.4 305.2L156.3 302.8 153.5 301.1 151.2 297.5 148.6 297.1 144 295.5 144.8 298.8 147.7 299.6 148.2 300.8 150.7 302.3 151.5 303.8 156.1 305.7 157.4 305.2ZM344.3 295.8L345 291.7 342.6 293.2 340.9 295.7 338.1 302.6 335.7 305.1 336.9 306.2 335.2 307.7 335.6 308.9 344 308.8 346.7 309.8 344.7 311.7 346.3 311.8 349.6 308.3 350.3 308.8 349.7 312.2 352.8 312.8 354 309.2 352.8 304.4 350.8 305.1 351.7 302 348.9 300.7 347.6 301.8 345.2 300.6 346.2 299.1 344.3 298.2 342.5 299.6 344.3 295.8ZM130.6 280L131 283.5 135.1 289.2 136.2 289.2 133.8 285.5 134.6 280.2 131.9 280.6 130.6 280ZM280.2 237.8L278.3 236.4 277.8 240.4 279.1 240.9 280.2 237.8ZM272.9 234.5L272.9 233.3 269.1 233.2 267 236 267.7 237.6 269.6 237.8 272.9 234.5ZM263.8 215.7L261.8 215.1 260.9 221.2 260.5 226.3 258.1 229.4 261.8 228.8 262.8 232.4 266.7 229.2 269.5 225.8 271.1 228.7 275.4 230.2 277.8 228.2 275.9 226.1 273.8 226.6 273.6 223.6 265.7 217.6 264.3 218.6 263.8 215.7ZM289.6 205.3L291.7 199.1 289.5 197 287 198 285.8 202.2 286.5 205.7 289.6 205.3ZM234.7 190.7L230.5 184.8 227.6 182.5 225.7 186 223.2 188.4 227 192 229.3 191.1 233 193.4 234.7 190.7ZM109 186L109 186 109 213.3 108.9 248.4 111.7 248.6 114.4 250.1 116.3 252.6 118.8 256.1 121.5 253.1 124.3 251.3 125.7 254.2 127.6 256.4 130.1 258.8 131.9 262.5 134.7 268.4 139.4 271.5 139.5 274.6 138 277 138 277 138 279.4 141.4 282.8 141.9 286.6 145.4 288.5 145 291.3 146.6 295.2 151.6 297 158.9 303.1 159.3 303.1 236.1 303.1 237 301.4 237.5 303.8 243.1 305.4 245.8 306.7 248.1 306.2 251.5 307.2 252.6 305.6 255.4 303.4 258 304.2 261.5 307.2 264.6 307.9 265.2 310.2 264.8 311.8 265.9 312.3 265.4 313.6 265.3 313.6 266.1 313.8 266.6 313.2 267.2 314.1 273.6 315 276.1 315.8 278.8 320.1 277.9 321.3 275.6 320.8 274.2 318.4 274.6 320.9 273.3 323 273.2 325.9 271.4 327.2 271.4 327.2 270.1 329.2 269.5 330.5 271 330.8 275.1 328.4 276.6 328.7 281.1 327.2 281.1 327.2 281.1 327.2 280.9 326.1 280.7 326.1 278.8 326 279.6 324.6 284.8 323.1 286 323.8 288.2 322.7 288.3 322.8 292.4 319.4 301.7 319.3 302 318.4 305 315.7 305.9 312.6 308 309.6 308.9 310.6 310.8 309.9 312 311.1 312 316.6 313.8 318.8 316.9 318.3 321.3 318.2 316.5 321.5 316.6 324.7 318.7 325 321.8 322.2 324.6 320.7 330.7 318.3 334.1 315.7 332.3 314.3 332.2 311.3 329.4 315.9 324.8 316.5 321.2 314.5 319.4 307 322 304.2 319.6 302.1 315.4 302.5 309.6 306 305.1 311.4 302.8 312.1 306 308.3 310 302.8 313.5 300.9 315.8 297.8 322.9 297.6 328.8 298.5 333.5 297.8 337 294.2 341.6 292.6 345.6 289.3 345.4 284.2 344.2 282.4 342.1 281.8 341 277.8 339.2 276.3 334.8 275 332.3 272.2 328.6 269.4 329.7 266.3 323 253.2 320.9 248.3 319 250.9 316.4 256.9 312.4 259.8 310.4 256.7 307.8 255.8 306.9 248.9 307 244.2 302 243.7 301.2 241.5 295.2 236.1 292.9 237.6 285.3 235.4 283.4 236.8 284.3 245.9 285.5 251 282.2 256.7 285.6 260.7 287.5 265.1 287.7 268.4 286.2 271.9 283 275.3 278.6 277.6 280.6 280.1 282 287.5 280.5 292.1 278.4 293.5 274.2 289.3 272.2 284.2 271.4 279.4 271.8 275.3 264.2 274.5 261.3 272.5 257.8 271.1 255.8 268.8 253.1 266.8 247.9 264.6 244 265.6 241.5 256.8 237.4 255.9 237.5 249.5 238.6 245.1 241.6 238.6 245 233.7 248.3 232.9 248.4 228.9 250.6 226.3 254.6 225.9 257.8 221.5 258.6 218.6 261.3 213 262.1 209.5 265 211.6 268.8 210.5 274.3 205.6 274.6 202.1 272.7 198.2 274.7 194.1 274.6 190.3 270.8 186.4 266.7 185.2 262.8 184.6 262.7 193.2 260.6 199.7 257.7 205 255.1 200.1 255.9 194.5 252.6 189.6 248.9 195.6 248.9 187.7 243.7 186.1 246.2 182.1 242.4 172.6 239.6 168.7 235.9 167.3 232.7 173.7 232.4 182.9 235.7 186.2 238.6 191 237.4 198.7 235.2 198.5 233.4 204.3 233.4 197.4 229.1 194.8 226.6 196.1 227 200.8 222.9 200.6 218.6 201.7 213.7 198.4 210.6 199 207.8 194.9 205.6 193.1 200 194.2 198.2 196.8 201 200 198 203.7 195.1 199.3 192.7 200.6 185.2 201.4 180.2 199.9 184.1 196.2 180.4 192.3 177.6 192.8 173.8 191.5 167.3 188.6 163.1 185.3 159.7 184.8 158.7 187.2 155.3 188.5 154.9 182.4 151.2 187.8 146.5 180.6 144.6 179.7 144 183.5 141.9 185.4 140 182.1 135.5 184.1 131.3 187.6 127.2 186.6 123.8 189.1 121.4 192.4 118.5 191.7 114.2 187.9 109 186ZM183.4 156.2L180.5 154.4 173.1 160.1 171.2 163.8 168.8 170.5 173.7 172.8 178 172.7 171.5 176.1 173 179.2 176.9 179.4 182.9 178.7 188.2 180.7 184.6 182.1 180.7 181.7 174.6 184 178 190.3 180.4 189.4 184.2 191.5 185.7 195.1 197.7 193.3 202.9 190.6 206.1 190.2 210.9 192.3 215.9 193.5 216.8 190.6 215.1 187.6 219.6 187 219.9 183.5 214.9 179.6 210.3 175.4 209.4 169.3 207.7 160.5 204.6 156.7 201.8 155.1 199.4 156.5 201.3 166 199.9 169.7 197.7 160.8 195.1 157.7 192 162.5 188.1 157.8 182 160.6 183.4 156.2ZM210.2 153.3L208.1 151.2 204.3 151.6 203.4 153 207.7 159.6 210.2 153.3ZM288.3 156.4L283.5 151.1 277.1 150 275.8 150.7 275.7 154.2 278.7 159.2 279.5 159.8 282.6 158.5 288.5 159 288.3 156.4ZM259.9 155.9L262 149.6 254.8 152.2 251.9 156.1 249.8 164.5 250.7 173.4 254.6 173.5 251.7 177.4 254 180.3 258.5 181.5 264.4 183.9 274.5 185.7 279.5 184.7 281 182.3 283.2 185.1 285.6 185.5 288.6 190.4 286.8 192.4 292.4 195 296.7 198.6 298.5 204.4 294.9 211.2 293.9 214.6 294.9 217 289.2 217.9 284 218 282.1 222.8 284.5 225 292.5 224 292.4 222.1 300.6 228.5 299.7 230.2 303 233.2 309 236.7 316.5 239.1 316 237 309.2 228.1 316.2 233 319.7 234.7 320.6 230.3 318.8 224 317.7 222.3 313.9 219.3 311 215.5 311.4 211.5 314.9 210.7 319.3 217.2 322.7 220 327.6 212.3 328.5 207.4 324.1 206.9 320.1 200.3 315.7 198.6 309.2 193.7 314.3 190.1 311.6 182.7 309.2 179.3 302.5 176 299.6 170.5 294.5 172.5 294.1 168.7 290.3 164.4 284.2 159.7 281.5 163.4 276 166 276.5 160 271.7 150.1 264.7 154.1 262.1 161.7 259.9 155.9ZM221.7 149.2L218.4 153.9 221.4 160.1 215.8 159 215.7 162 222.6 168.9 224.5 172.3 227.2 173 231.7 169.6 232.2 161.5 228.1 157.5 230.6 152.9 229.9 150 225 151.3 221.7 149.2ZM241.5 159.5L244.8 157.7 249 149 243.7 146.6 237.9 146.2 235.1 149 233.7 153.2 233.7 157.9 235.4 166 238.5 166.4 241.5 159.5ZM165.9 172L165.9 168.2 169.3 161.9 176.1 155.2 179.6 152.8 176.7 148.6 174 145.7 166.9 145.2 162.9 143 153.5 144.6 156.3 150.8 153.8 157.2 150.7 167.8 157.1 172.4 158.6 176.2 165.9 172ZM240.4 137.4L239.4 134 236.9 130.1 232.9 133.1 231.5 138 234.8 140.8 238.9 141.5 240.4 137.4ZM226.8 117.7L226.6 119.3 222.7 118.6 218.5 122.6 215.5 122.2 215.7 131.1 220.3 130.2 220.2 136.6 223.2 138.3 227.8 137.2 229 129.1 228.9 123.2 226.8 117.7ZM199.9 123.8L198.9 118.2 196.1 116.8 193.5 121.1 197.5 132.1 192.7 131.2 187.7 124.5 179.9 120.6 177.3 123.8 173.5 134.8 177.4 136.8 189.9 135.5 184.2 140.2 184.5 143.6 188.8 143.4 195.7 138.8 205.1 137.2 206.8 132 206.3 126.5 203.4 126 201 127.9 199.9 123.8ZM237.4 113L231.7 112.3 230.6 117.3 233.8 121 239.6 122.4 242.4 127.5 242.7 133 243.7 139 251 142.3 255.5 143.6 261.2 143.4 269.2 141.8 272.7 143.1 276.9 140.9 278.6 138 278 133.6 275 129.4 270.5 128.6 264.8 129.6 260.4 132 252.6 130.6 250.9 127.9 247.7 125.3 248.3 120.9 245.9 117 240.5 117 237.4 113ZM177.7 106.1L173.9 108 169.7 107.8 164 115.9 163 127.3 167.5 125.5 172.6 120.5 175.2 120 177.3 115.8 177.7 106.1ZM239.7 107.7L240.1 106.2 238.1 103.8 232.5 103.6 233.3 107.3 238.5 108.1 239.7 107.7ZM194.4 105.4L195.3 101.5 191.4 99.4 187.4 100.8 185.1 105 189.2 109.1 194.4 105.4ZM195.9 93.2L190.8 89.7 187.9 93.9 187.9 95.9 192.5 95.9 195.9 93.2ZM234.2 100.7L235 95.8 231.7 90.9 230 89.9 226.4 89.4 226.7 95.2 227.9 100.3 230.1 103.4 234.2 100.7ZM222.5 97L220.4 90.4 212.9 85.1 207.4 83.1 207.6 88.7 211 92.1 208.3 96.3 214.5 96.8 219 101.2 223.6 102.7 222.5 97ZM258.7 77.6L256.5 67.1 247.2 60.3 243.7 50.8 237.3 51.8 238.5 55.9 235.6 57.1 233.7 62.4 231.8 69.7 233.5 76.9 236.6 82 241.7 81.9 239.5 85.9 239.4 91.1 242.4 96.8 248.2 98.5 253.1 97.6 258.2 86.9 262 82.5 258.7 77.6ZM310 13L298 10 290 13.9 288.5 11.4 280 12.4 275.1 14.9 271.4 18.6 269.3 30.2 266.3 24.3 262.9 23.1 258.8 31 253.3 34.3 250.1 35 246 38.8 246.6 45.3 249.8 50.8 252.1 58 257 63.8 266.8 62.7 273 64.7 268.7 70.7 266.5 68.9 258.9 68.2 260.1 76.4 264 82.4 263.2 87.6 258.3 91 256 96.4 260.5 99 264.3 107.5 256.9 101.8 255.2 102.8 256.6 112 251.5 114.8 251.8 120.6 257 121.3 261.2 122.7 269.3 120.9 276.6 124.1 284 117 283.9 114 279.2 114.5 278.8 111.7 282.7 107.9 284 102.8 288.3 99 290.9 94.3 288.6 87.2 290.5 84.6 286.7 82.7 295.1 81.1 296.9 78 302.6 75.4 307.3 62.1 311.8 57.2 318.4 46.2 312.4 46.3 314.9 42.1 321.6 38.1 328.3 29.3 328.5 23.6 323.4 17.7 317.4 14.8 310 13Z" data-id="CA" data-name="Canada" id="CA"/><path d="M523.6 308L523.1 308.9 520.7 308.8 519.9 309.5 516.7 312.5 516.7 314.3 518 313.7 519 315.4 520.2 316.3 524.9 315.3 525.5 313.6 527.5 314.1 528.7 313.5 529 311.8 527.5 311.7 526.3 311 526.7 310 526.6 309.2 523.6 308Z" data-id="CH" data-name="Switzerland" id="CH"/><path d="M314.3 642.3L312.6 642.2 309.6 642.2 309.6 631.7 307.7 631.2 305.1 633.1 304.2 636.3 302.8 638.4 299.1 636.7 295.2 633.6 292.9 632.7 296.7 637.9 303.1 643.1 306 643.8 311 645.8 313.4 644.3 314.3 642.3ZM307 509L306.2 510.5 304.8 511.2 305.4 515.3 305.6 520.2 303.8 533.2 303.3 539.2 301.7 543.1 302.1 547 301.2 549.7 301.9 554.6 300.7 559.5 297.1 570.5 295.9 570.6 296.1 574.5 296.9 578 295.7 580.4 293.8 592.6 295.6 593.2 296.5 588.4 298.3 589.4 296.9 597.4 293.8 596 292.8 602.5 290.2 606 294.4 607.2 291.5 610.4 290.3 614.4 290.7 621.7 292.1 624.6 291.3 627.2 292.1 630 298.8 635.9 301.9 637.4 303.1 637.3 303.5 632.9 307.4 630.2 309.8 630.2 307.2 629.5 300.5 628.9 299.4 626.3 299.4 623 297.6 623.3 296.6 621.7 296.4 617.1 298.5 615.2 299.4 612.6 299.1 610.5 300.5 607 301.6 601.7 300.9 596.4 301.8 594.8 300.5 593.3 299.9 589 301 588.2 300.5 583.7 301.9 576.8 303.6 575.5 302.8 572 302.7 568.8 304.8 566.6 304.8 563.7 306.4 560.5 306.4 557.4 305.6 556.8 304.4 551.1 306.1 547.8 305.8 544.7 306.8 541.8 308.6 538.9 310.6 536.9 310.2 529.6 313.3 528.1 314.2 525 313.9 524.2 311.9 524.6 310.8 520.5 309.3 517.2 310.2 514.3 308.7 513.1 308.4 510.9 307 509Z" data-id="CL" data-name="Chile" id="CL"/><path d="M806 406.7L807.9 403.7 807.3 402.6 802.6 403.3 801.3 404.7 801.4 407.2 803.6 408.1 806 406.7ZM853 295.6L849.3 286.4 846.9 284.7 842.7 283.3 839 283.4 835.6 284.3 833.3 286.6 834.8 287.7 834.9 290.2 833.3 291.6 830.8 296.3 830.8 298.2 826.9 300.9 823.6 299.3 822.3 302.5 820.3 306.7 821 308.4 822.6 307.9 825.3 308.5 827.4 307 829.7 308.3 832.2 311.2 831.9 312.6 829.7 312.2 825.7 312.7 823.7 313.9 821.7 316.5 817.5 318 814.7 320.1 810.3 319 808.8 321.5 810.2 324.2 806.2 327.6 803 328.9 798.8 329 794.3 330.3 791.1 332.3 789.9 331.2 786.5 331.2 782.4 328.9 779.7 328.4 776 328.9 770.3 328 767.2 328.1 765.6 325.9 764.3 322.3 762.6 321.9 759.3 319.5 752.2 318.2 751.2 316.5 752.3 311.8 750.4 308.5 746.4 307 744.1 304.8 743.4 301.8 742.3 302.2 740.2 305 737.9 305.4 737.7 309.5 736.2 311.4 730.7 310 728.7 317.2 727.3 318.1 721.8 319.7 724.3 326.4 722.4 327.4 722.6 329.5 722.2 330.4 717.8 332.4 716.9 333.9 713.3 334.3 712.2 336.6 709.3 336.1 704.7 338.6 705.1 339.4 704.3 340.2 705 343.5 706 343.2 707.6 344 707.5 345.4 708 347.4 708.4 348.4 710.5 350 711.3 352.6 715.9 354 718.9 358 718.6 360.7 719.7 362.4 719.6 364.1 717.6 363.6 718.4 367.2 721.1 369.3 725 371.5 726.1 370.8 732.7 374.3 733.6 375.8 738 377.8 741.2 378.6 744.4 378.9 746.1 378.2 746.3 380.7 748.2 378.3 749.7 377.5 751.6 378.3 753.1 378.4 754.3 379.2 756.6 378.8 759.1 376.5 762.3 374.4 764.6 375.2 766.6 373.9 767.9 375.9 766.9 377.2 769.9 377.7 771.6 377.4 773.7 380 773.7 385 771 387.5 770.7 391.1 773.6 390.6 774.3 393.4 776.1 394 775.2 396.5 778.5 398.2 780.5 397.3 780.6 398.5 780.9 399.2 782.3 399.3 781.9 395.9 783.4 395.5 784.9 394.7 789.8 394.4 792.1 392.8 793.5 393.9 796 394.5 795.6 396.2 796.9 397.4 799.7 398.2 801 397.7 804.7 398.7 804.1 399.8 804.8 402 806.3 401.8 807.3 398.7 810.2 398.2 814.1 396.7 815.6 395.2 816.6 396.2 818.3 394.8 821.4 394.5 829.1 389.2 831.7 385.5 835.9 378.1 837.5 377.8 838.6 372.7 837 371.7 836.3 370 838.1 369.1 838.1 366.7 834.5 361.1 833.4 357.8 830.5 356 831.9 353.6 834.6 351.9 835.9 350 839.8 349.1 839.4 347.2 837.6 347.2 835.1 345.8 832 348.3 829.8 347.3 829.7 345.7 827.4 345.1 826 342.7 827.4 341.1 830.1 340.9 831.8 338.6 834.9 336 837.4 334.7 838.8 336.7 836.6 339.1 837.2 340.5 835.7 342.2 838.7 341.2 840.8 339.5 844.6 338.5 846.9 336.1 850 334.2 851.9 331.5 853.2 332.7 855.6 332.8 855.2 330.9 859.4 329.3 860.5 327.1 862.3 329.4 862.3 329.4 862.3 327.4 863.7 327.3 864.1 322.8 863.4 319.5 865.8 318.1 869.1 318.8 871 314.9 872 310.5 873 309 874.5 305.3 869.9 306.5 867.5 308.1 863.3 308.1 862.2 304.2 858.9 301.2 854.1 299.9 853 295.6Z" data-id="CN" data-name="China" id="CN"/><path d="M483.9 430.9L482.8 430.1 481 431.2 478.1 430.7 477.7 431 477.2 431.2 478.3 435.6 477.2 436.8 477 438 476.6 438 476.5 438.9 479 443.6 478.6 447.3 479.1 447.4 483.8 445.6 487.1 445.1 490.8 445.6 492.1 445.6 491 442.1 491.7 438.9 492.9 436.6 492.2 432.6 490.3 431.8 486.7 432.1 486.3 431.1 485 430.5 483.9 430.9Z" data-id="CI" data-name="Côte d'Ivoire" id="CI"/><path d="M541.3 425.3L540.2 423.5 539.4 423.6 539.3 424.5 540.4 425.7 540 427.1 537.6 429.3 535.4 435.2 533.9 436.3 532.6 440 530.7 441 525.6 441.5 523.6 446.2 523.5 446.9 526.1 449.1 527.2 450.9 526.8 453.1 531.3 453.2 532.6 453 534.3 453.3 535.9 453 536.3 453.1 539.8 453.2 542 454 544.2 454.6 544.4 453.1 544.1 452.3 544 451.1 540.2 446.3 540.3 442.1 541 441.6 542.4 438.8 542.8 438 538.7 432.8 539.3 431.5 542.9 431.6 541.4 429 541.5 427.2 541.3 425.3Z" data-id="CM" data-name="Cameroon" id="CM"/><path d="M551.2 449.7L551 451.4 549.3 457.1 548.6 461.5 546.8 462.8 544.3 467 544.4 469.2 540.4 473.2 536.8 473 536 472.7 535 473.3 534.6 474 534.5 475.2 533.8 475.5 534.2 476.4 537.1 475.7 545.3 475.8 546 477.8 548.5 481.9 553.9 479.3 560.3 479.7 560.9 482.5 560.5 484.2 561.6 487 561.4 490.4 565.1 489.7 566.3 489.9 567.3 490 570.5 491.1 571.4 492.3 573.6 492.7 575.3 491.8 576 493.3 578.1 493.7 580.2 496.5 582.4 496.5 582.1 493.5 578.7 492.4 579.5 486.2 578.9 485 579.7 483.2 584.7 482.5 584.8 482 581 476.2 580.7 473.5 581.2 469 581.2 469 581.2 468.6 580.5 467.3 580.8 465.8 581.1 465.6 581.2 463.9 582 463.1 582.1 461.1 582.7 460 582.9 457.8 583.4 456.5 586.5 453.3 585.3 452.9 585.5 449.7 585.5 449.7 583.1 447.8 582.4 446.7 580.9 447.2 577.6 447.2 575.9 444.9 575 445.2 567.7 445.2 562.1 448.2 554 445.5 551.4 447.8 551.2 449.7Z" data-id="CD" data-name="Democratic Republic of the Congo" id="CD"/><path d="M549.4 449.5L547.5 449.1 545.9 450.6 544.4 453.1 544.2 454.6 542 454 539.8 453.2 536.3 453.1 536.1 454.3 536.8 455.8 539.6 456.1 538.4 459.3 539.7 461 538.8 466.3 536.4 466.2 534.9 464.8 534.7 466.1 531.8 467.1 532.9 468.9 530.8 470.5 533 473.4 534.2 472.2 535 471.7 536 472.7 536.8 473 540.4 473.2 544.4 469.2 544.3 467 546.8 462.8 548.6 461.5 549.3 457.1 551 451.4 551.2 449.7 549.4 449.5Z" data-id="CG" data-name="Republic of Congo" id="CG"/><path d="M302.7 425.6L301 424.7 296.4 428.1 294.2 427.9 290.7 429.8 289 433.4 286.9 435.4 285.5 435.3 285.8 437.3 285.2 438.2 284 439.3 285.1 440.8 286.1 448.7 283.9 451.9 282.5 452.1 280.9 454.7 281.3 455.6 285.3 458.3 287.6 458.7 289.8 459.2 291 459.8 291.7 459.6 295.7 462.9 297.3 465.8 299.4 466.2 303.6 465.7 305.7 467 303.9 469.8 304.8 469.9 306.2 471.4 307.4 463.7 305.8 459.9 305.8 457.9 308 456.7 306.4 456.4 306.4 454.7 311.8 454.7 314 456.3 314.5 455.9 313.7 453.2 311.9 451.6 313.3 450.2 311.9 446.9 313.2 442.5 312.2 442 307.5 442.5 305.6 440.1 300.4 440 299.1 436 296.7 433.9 297.8 430.3 300.4 427 302.2 426.5 302.7 425.6Z" data-id="CO" data-name="Colombia" id="CO"/><path d="M261.6 429L262.4 431.7 265 431.8 265.2 432.6 268.4 435.9 269.9 436.5 270.2 434.9 270.6 434.6 271.1 432.8 269.8 431.6 268.7 430.4 268 428.9 267.3 429.5 262.3 428.5 261.6 429Z" data-id="CR" data-name="Costa Rica" id="CR"/><path d="M279 394.6L276.4 393.5 266.4 395.2 265.8 396.2 268.4 396.3 270.4 394.8 273.1 394.9 273.1 396.3 276.7 396.7 280.1 398.2 281.7 398.1 286.2 401.6 284.3 403.2 293.9 402.6 294.3 402 287.8 399.2 282.7 395.3 280.1 395.7 279 394.6Z" data-id="CU" data-name="Cuba" id="CU"/><path d="M594 354.9L595.9 353.4 593.4 354.4 591 355.2 590.8 355.2 592.6 355.1 593 355.6 594.2 355.5 594 354.9Z" data-id="-99" data-name="Northern Cyprus" id="-99"/><path d="M589.5 355.3L590.1 356.7 591.5 357.1 594.3 355.8 594.2 355.5 593 355.6 592.6 355.1 590.8 355.2 589.5 355.3Z" data-id="CY" data-name="Cyprus" id="CY"/><path d="M540.4 294.4L537 295.6 533.9 297.7 534.7 300.8 536.1 301.8 537.7 303.6 539.8 305 544.5 304.2 545.8 304 547 304.8 547.4 303.9 548.7 303.9 551.5 301 552.3 301 551 298.9 549 298.6 548.7 297.3 546.8 296.8 546.4 297.9 545 295.8 543 295.4 541.6 294 540.4 294.4Z" data-id="CZ" data-name="Czech Republic" id="CZ"/><path d="M537.9 280.4L534.7 278.6 533.2 279.9 530.3 280.7 530.4 279.1 527.6 277.9 527.5 276.1 525.7 276.8 523.6 276.2 523.8 278.9 524.4 280.7 522.5 283 522 282 519.7 282.2 519.2 283.2 519.7 284.8 518.3 290.7 516.6 290.7 517.1 295.3 516.8 298.3 517.3 299.2 517.2 301.1 518.5 302.2 522.5 303 521.1 305.9 520.7 308.8 523.1 308.9 523.6 308 526.6 309.2 527.4 309 531.7 309.2 535 308.6 535.7 306.1 536.7 305.5 537.7 303.6 536.1 301.8 534.7 300.8 533.9 297.7 537 295.6 540.4 294.4 541.6 294 540.5 291.1 539 285.5 539.8 284.3 539.2 281.9 537.9 280.4Z" data-id="DE" data-name="Germany" id="DE"/><path d="M618.5 426.6L620.1 426 620.1 424.8 619.5 423.9 618.6 424.6 617.5 424.4 616.5 425.6 615.8 428.6 617.4 428.6 618 428.4 618.6 428.9 619.7 427.4 618.5 426.6Z" data-id="DJ" data-name="Djibouti" id="DJ"/><path d="M535.2 273L534.3 270.6 530.2 272.2 530.6 274.2 533.5 277 535.2 273ZM523.6 276.2L525.7 276.8 527.5 276.1 526.8 273.7 528.8 270.2 530.3 268.8 529.2 265 529.3 262.3 526.1 265.2 523.7 265.5 522.4 268.4 522.5 273.5 523.6 276.2Z" data-id="DK" data-name="Denmark" id="DK"/><path d="M301.3 409.4L302 409.8 308.2 407.4 309.5 408.1 310.5 406.9 308 404.8 306.5 404.9 303.6 403.1 301.5 403.1 301.1 403.6 301.1 406.4 300.5 406.9 301.1 408.5 301.3 409.4Z" data-id="DO" data-name="Dominican Republic" id="DO"/><path d="M521.5 349.2L520.3 348.4 517.4 348.4 514.8 349.8 513.4 349.3 504.1 350.2 499.6 352.7 496.6 353.3 494 355.1 496.4 364.8 492.7 365.4 489.9 366.8 489.8 369.3 486.5 370.5 485.5 372.1 480.4 373.5 475.9 375.8 476 379.6 476 379.8 475.9 380.4 486.3 387.9 495.7 394.5 505.1 401 508.7 403.7 508.8 405.6 511.8 405.3 515.7 404 523.8 398.1 533.3 392.4 532.1 390.5 529.9 389.1 528.6 389.7 525.8 384.4 526.9 383.1 526.9 378 527.2 374 526.3 371.1 525.1 365.3 521.1 361.2 520.9 358.7 522.6 356.8 523.2 354.1 522.8 350.8 523.4 349 521.5 349.2Z" data-id="DZ" data-name="Algeria" id="DZ"/><path d="M289.8 459.2L287.6 458.7 285.3 458.3 281.3 455.6 279.4 456.7 275.5 462.4 277.1 466.9 278.2 465.6 278.8 466.8 277.3 468.9 276.9 471.7 280.3 473.2 281.9 472.1 284.1 467.8 287.5 466.7 290.5 463.8 291.3 462 291 459.8 289.8 459.2Z" data-id="EC" data-name="Ecuador" id="EC"/><path d="M569.8 367.1L568.8 368.6 568.5 372 569.3 374.6 569.3 385.7 569.3 396.9 580.5 396.9 591.2 396.9 602.2 396.9 601.8 396.2 598.5 393.5 599 391 596.5 387.7 590.8 376.3 589.9 372.6 591.9 377.2 594.1 379.6 594.7 379 596.9 373.7 596.6 372.9 595 368.2 595 368.2 593.7 369 587.9 367.5 582.3 368.3 580.2 369.3 573.5 367 569.8 367.1Z" data-id="EG" data-name="Egypt" id="EG"/><path d="M606.5 408.7L605.1 410.3 603.1 410.8 602.2 411.7 601.9 413.6 600.7 417.8 601 419 604.3 419.6 605.1 417.5 606.8 418.8 609.1 418.7 611 418.7 613.4 419.9 614.1 420.9 615.4 421.8 616.5 423.4 617.5 424.4 618.6 424.6 619.5 423.9 618.1 423.1 614.2 418.8 608.9 414.7 608.1 412 606.5 408.7Z" data-id="ER" data-name="Eritrea" id="ER"/><path d="M490.2 325.3L487.9 325.5 485 324.9 481.3 324.9 477.9 324.2 473.9 327 475.1 328.6 474.9 331.3 477.1 329.8 477.8 331.6 481.5 331.3 482.3 333.1 481 334.1 480.4 339.2 479.2 339.5 480.3 341.7 479.3 348.5 481.9 349 485.1 352.5 487.9 349.9 494 350 496 347.3 498.1 346.6 498.7 344.3 500.3 342.7 499.2 340.7 500.3 337.7 502.2 334.5 505.8 333.7 508.4 331.2 508.3 329.1 505.1 329.6 501.9 327.9 500.9 328.7 495.8 327 494.7 325.5 490.2 325.3Z" data-id="ES" data-name="Spain" id="ES"/><path d="M567.4 262L569.8 261.1 571 261.7 573.4 263.6 575.7 263.7 576.9 262 576 257.1 578 254 577.6 253 577.6 253 574.7 253.2 571.7 252.3 568.2 253.1 564.7 254.6 565 257.7 566.7 259.6 567.8 258.9 567.4 262Z" data-id="EE" data-name="Estonia" id="EE"/><path d="M601 419L600.6 421.5 599.5 424.3 597.8 425.7 595 429.8 594.2 432.7 594.2 433.1 594.2 435.2 592.3 436.2 591.4 437.8 593.1 438 596.3 441.1 597.9 444.1 599.3 444.6 605.7 449.4 609.7 449.9 613.1 447.6 614.2 448.5 616.1 448.5 616.8 447.7 618.6 447.6 621.1 445.7 624.7 445.5 632.5 437.2 630.2 437.2 621.1 433.8 620.1 432.8 619.1 431.5 618 429.9 618.6 428.9 618 428.4 617.4 428.6 615.8 428.6 616.5 425.6 617.5 424.4 616.5 423.4 615.4 421.8 614.1 420.9 613.4 419.9 611 418.7 609.1 418.7 606.8 418.8 605.1 417.5 604.3 419.6 601 419Z" data-id="ET" data-name="Ethiopia" id="ET"/><path d="M580.5 185.5L576.9 182.3 572.6 185.1 571.2 190.9 568.6 194.3 565.6 192.4 562 192.8 558.9 188.7 557.3 190.7 561 194.5 565.3 199.6 565.4 210.6 566.3 213.3 570.2 216.5 570.4 219.3 568.6 220.7 562.2 227.6 559.7 231.5 558.4 235.1 559.8 240.4 559.1 246.1 561.8 248 563.4 251 567.9 249.8 572.8 247.8 577.9 247.3 577.9 247.3 586.4 236.6 587.4 233.5 583.3 229.3 584.4 225.2 581.9 220.4 583.8 214.7 580.6 206.8 583.1 201.4 578.9 196.4 579.3 191.1 580.5 185.5Z" data-id="FI" data-name="Finland" id="FI"/><path d="M994.7 508.3L991.7 509.4 992 510.7 995.2 510.6 994.7 508.3ZM997.5 506.7L999.2 506 999.2 504.6 995.3 506.2 995.7 507.3 997.5 506.7Z" data-id="FJ" data-name="Fiji" id="FJ"/><path d="M337.6 624.8L335.9 626.6 333.6 625.5 330.3 628.2 331.6 630.2 334 628.2 335.3 629.8 339 628.4 339.8 626.8 337.6 624.8Z" data-id="FK" data-name="Falkland Islands" id="FK"/><path d="M356.3 446.7L353.3 444.4 351.3 443.7 350.3 443.4 348.9 445.8 349.1 447.7 350.2 449.4 349.7 450.6 349.5 451.8 348.8 453 350 453.6 351.8 453.7 353.2 453.5 356.7 447.9 356.3 446.7Z" data-id="GF" data-name="France" id="GF"/><path d="M535.9 453L534.3 453.3 532.6 453 531.3 453.2 531.3 456.5 527.3 456.5 526.3 456.6 525.8 458.7 524.4 462.5 526.1 465.4 527.9 467.7 530.8 470.5 532.9 468.9 531.8 467.1 534.7 466.1 534.9 464.8 536.4 466.2 538.8 466.3 539.7 461 538.4 459.3 539.6 456.1 536.8 455.8 536.1 454.3 536.3 453.1 535.9 453Z" data-id="GA" data-name="Gabon" id="GA"/><path d="M479 275.4L479.6 278 479 280.5 482.8 281.4 484.3 278.1 481.3 275.2 479 275.4ZM491.7 257.6L488.3 258 486.1 257.6 484 261.9 482.9 267.2 484.3 269.7 484.5 274.5 486 272.2 486.9 273.5 485.9 275.7 486.6 277 491.8 280.9 491.4 283.6 487.3 283.2 486.8 286.2 488.3 288.6 485.4 290 488 293.5 484 298.1 485.5 299 487.4 297.3 490 297.8 491.8 295.8 493.1 296.7 497.8 295.4 501.5 295.5 504 293.2 502.9 290.9 504.3 289.6 504.7 286.6 501.3 285.8 498.8 278.6 496.9 277.8 491.3 271.2 493.8 266.7 494.6 262.6 491.5 262.5 488.7 263.2 491.7 257.6Z" data-id="GB" data-name="United Kingdom" id="GB"/><path d="M611.2 325L610.8 325.4 611.8 326.6 613.4 327 615 328.4 615.7 331 615.2 332.6 618.2 332.4 620.9 334.2 624.7 333.6 625.4 333 629.3 333.9 628 331.9 628.7 331.4 627 330.5 626.1 329 623.5 328.2 621.8 328.8 621.4 328.1 617.6 326.2 613.5 325.6 611.2 325Z" data-id="GE" data-name="Georgia" id="GE"/><path d="M498.8 428.5L491.8 428.8 491.8 430.4 492.2 432.6 492.9 436.6 491.7 438.9 491 442.1 492.1 445.6 494.6 446.3 497.1 445.5 498.6 444.6 502.9 443 501.4 438.8 502 436.3 501 431 499.9 429.6 500.1 428.7 498.8 428.5Z" data-id="GH" data-name="Ghana" id="GH"/><path d="M467.7 424.8L465.3 425 463.3 424.3 462 424.2 462 425.2 461.9 426.4 460.1 427.3 458 428.6 458.8 429.1 459.2 429.7 459.6 430.9 462 433 463.3 434.6 466.9 431.4 469.2 431.4 470.9 436.2 471.6 436 472.2 436 475.2 439.1 475.8 438 476.6 438 477 438 477.2 436.8 478.3 435.6 477.2 431.2 477.7 431 476.9 430.2 476.8 427.6 471.8 426.3 468.2 425.7 468.1 424.6 467.7 424.8Z" data-id="GN" data-name="Guinea" id="GN"/><path d="M453.3 422.6L455.8 422.7 458 421.6 459.2 422.2 461.6 421.6 458.2 420.6 453.6 421.4 453.3 422.6Z" data-id="GM" data-name="The Gambia" id="GM"/><path d="M456.9 424.1L456.1 424.4 455.2 424.3 453.7 424.8 453.9 425.4 455.4 427.2 456.6 427.4 458 428.6 460.1 427.3 461.9 426.4 462 425.2 462 424.2 456.9 424.1Z" data-id="GW" data-name="Guinea-Bissau" id="GW"/><path d="M526.8 453.1L525.8 456.2 526.3 456.6 527.3 456.5 531.3 456.5 531.3 453.2 526.8 453.1Z" data-id="GQ" data-name="Equatorial Guinea" id="GQ"/><path d="M565.7 353.3L565.2 354.7 568.6 356 572.6 355.7 572.9 354.7 567.2 354.4 565.7 353.3ZM572.4 331.5L572.4 333.3 569.9 333.7 567.9 332.4 565.7 333.4 563.7 333.3 563.1 333.4 562.7 334.1 561.2 334 560.1 334.8 558.3 335.1 558.2 336.1 557.3 336.6 557.2 337.8 555.9 339.5 556.1 340.6 559.1 346.6 560.1 349.4 562.4 350.9 564.2 350.8 563.2 347.8 564.9 347.4 564.1 345.6 566.7 346.5 566.6 344.6 563.7 341.9 564.8 341.1 563.3 336.5 564.7 338.3 567.7 337.7 565.8 335.7 569.1 334.7 570.6 335.1 572.3 335.2 572.9 334.8 573.8 332.5 572.4 331.5Z" data-id="GR" data-name="Greece" id="GR"/><path d="M402.7 0L392.9 2.4 389.3 11.2 379.6 10.2 370.3 23.7 369.9 32.6 376.5 43.3 370.8 37 366.9 35.4 360.2 27.7 352.9 38.9 349.9 32.7 341.3 32.8 332.8 36 326.2 41.2 327.4 49.7 323.4 51.6 313.8 63.8 311.3 70.4 318.8 76.1 317.8 81.7 307.6 88.8 297.1 95.6 296.7 100.8 303 106.2 314.8 109.6 309.2 110.2 302 114.2 306.8 121.7 310 125.4 316.8 124.6 324.2 124.1 330.1 125 337.5 131.6 337.5 136.2 341 140.3 346.6 157.8 348.2 161.3 345.1 169.7 347.5 171.8 350.2 170.6 357.5 179 351.8 176.7 349.2 176.9 348.2 181.3 348.3 186.8 351.7 189.4 358.9 184.2 358.3 190.4 357.2 193.7 353.1 196.5 350.3 205 352.2 207.5 351.2 212.7 355 218.9 355.4 224.7 356.8 228.8 361.6 236.4 363.5 242.2 366.1 245.3 371.7 245.4 375.8 249.9 379.7 249.6 382.4 239.3 381.2 234.6 385.8 229.7 387.2 225.6 387.2 221.1 389.6 217 397.3 213.8 399.2 213.5 405.1 208.6 409 201.1 411.9 198.2 414.9 198.2 423 195.6 430.6 189.6 438 182.6 426.9 181.8 430.1 177.4 429.2 171.6 434.7 179.8 439.7 178.2 438.6 171.3 435 165.9 431.2 163.6 432.7 161.1 438.2 164.9 438.1 160.9 434.6 154.4 438.5 154.4 442.4 152.9 443.3 149.4 440.1 145.3 446.3 144.6 442.7 135.5 445.6 134.5 445 125 439.9 118.8 444.4 114.9 448.8 114.4 445.4 106.2 445.3 91.1 447.6 81.6 450.8 70.2 444.4 69.4 453.3 66.6 454.8 62.7 466.1 50.2 464.6 42.2 456.3 38.4 442.8 45.9 435.7 52.7 438.8 41.9 436.5 34.8 431.1 40.9 422.7 34 412.9 36.2 411.5 32.6 426.5 30.6 437.1 29.7 442.2 21.5 424.8 3.1 402.7 0Z" data-id="GL" data-name="Greenland" id="GL"/><path d="M250.2 409.2L247.6 409.2 247.6 410.8 249.1 414.3 245.5 414.3 244.2 416.6 244.2 418.7 245.7 419.8 247 420.4 248.7 420.5 250.1 421 250.2 420.5 251.5 419.2 252.2 419 252.8 418.3 254 416.3 255.3 415.2 254.5 414.9 254.3 415.3 253.4 414.8 252.5 414.8 252.7 411.5 252.8 409.2 250.2 409.2Z" data-id="GT" data-name="Guatemala" id="GT"/><path d="M340.4 441.9L337.8 439 336.1 437.2 334.3 436.1 330.4 440.8 330.4 442.1 329.7 442.9 331.6 445 333 444.9 334.9 448.4 333.7 451.8 336.3 455.8 337.6 455.9 342.5 454.3 343.2 454.2 341.5 451.7 339 448.2 341.1 445.3 341.5 442.8 340.4 441.9Z" data-id="GY" data-name="Guyana" id="GY"/><path d="M268.7 416.6L266.9 415.5 264.3 414.5 255.6 415.4 255.3 415.2 254 416.3 252.8 418.3 252.2 419 253 419.2 254.5 420.6 255.8 420.3 256.5 422 257.3 422.2 257.8 423.1 259.4 422.3 259.4 420.9 262 420.7 265.8 418.4 269.4 417.4 268.7 416.6Z" data-id="HN" data-name="Honduras" id="HN"/><path d="M545.9 313.4L543.7 314.5 542.5 316.5 542.5 317.6 538 317.4 537.9 317.5 538.7 320.1 539.5 318.4 541.3 319.1 542.1 322.3 544.4 325.1 551.2 329 551.2 329 551.5 328.4 549 327 543.7 320.1 544.3 318.4 545.3 319.4 551.5 319 552.7 319.9 552.7 319.9 553.8 318.4 552.9 317.3 552.2 315.8 552.2 315.8 551.2 316.4 548.9 315.6 546.8 313.9 545.9 313.4Z" data-id="HR" data-name="Croatia" id="HR"/><path d="M298.7 403.2L296.4 403.9 298.1 404.3 299.4 406.7 298.4 407.4 293.7 406.7 295 408.6 299.3 408 301.1 408.5 300.5 406.9 301.1 406.4 301.1 403.6 298.7 403.2Z" data-id="HT" data-name="Haiti" id="HT"/><path d="M547.1 306.8L546.9 308.5 545.3 308.5 545.9 309.4 544.9 312 545.4 312 545.9 313.4 546.8 313.9 548.9 315.6 551.2 316.4 552.2 315.8 552.2 315.8 554.3 314.7 556.1 314.9 558.3 314.1 560 311.4 561.3 308.6 563 307.8 562.8 306.7 561.3 305.5 560.7 305.9 556.8 304.9 556.1 305.9 548.5 307.8 547.1 306.8Z" data-id="HU" data-name="Hungary" id="HU"/><path d="M834.8 488L832.5 485.5 830 486.1 833.6 488 834.8 488ZM846.9 485.6L846.9 484.7 846.6 484.2 843.9 485.3 842.7 488.3 845.1 487.7 846.9 485.6ZM827 482L824.7 483 823.8 484.6 830.4 483.7 829.7 482.5 827 482ZM840.9 482L834.8 482.3 832.6 482.9 832.6 484 836.3 484.3 840.5 483.5 840.9 482ZM801.3 478.3L797.5 476 794.1 475.8 792.2 478.5 794.8 478.7 795.2 479.9 800.3 481 803.5 481 806.7 482 814.7 482.7 817.7 483.8 820.9 482.7 817.5 481.1 813.3 480.6 812.3 478.7 807.2 477.4 806.6 478.5 801.3 478.3ZM873.7 476.7L873.7 475.4 872 476.5 872.2 478.6 873.7 476.7ZM852.9 469L852.2 468.1 849.4 468.2 850 469.4 851.9 469.9 852.9 469ZM861.9 468L858.8 467.2 855.4 467.3 854.7 468.8 860.5 469 862.9 470.1 861.9 468ZM891.2 484.8L891.1 475.7 891.1 466.6 888.1 466.1 883.7 464.1 881.2 464.2 878 465.8 875.7 468.8 872.8 467.1 871.6 461.6 867.2 460.5 865.7 461.4 862 462 863.2 463.4 865.6 463.9 866.7 465.6 870.8 465.6 866.1 467.3 869.9 470.6 870.7 469.2 874.9 471.8 877.2 472 882.5 474.4 883.9 476.7 884.6 479.8 882.8 480.6 881.7 482.8 885.2 482.8 885.9 482 888.7 482.5 891.2 484.8ZM847.4 455.5L846.9 454.9 844.1 456.9 837.4 456.6 835.3 455.8 832.9 457.9 830.5 465.4 829.4 467.2 830.3 469.1 831.4 469.1 831.9 471.8 831.1 474.4 834 474.8 833.7 467.6 835.5 466.7 835.3 469.4 837.3 471.1 837.6 472.9 840.4 471.8 839 474.1 840.1 475.1 841.6 474.3 841.6 472.4 839.1 469.2 839.6 468.3 837 464.7 839.4 463.6 842.1 461.1 836.9 462.1 835.4 463.3 832.9 460.9 833.3 458.8 840.4 458.2 843 458.8 845.1 458.2 847.4 455.5ZM856.9 456.3L855 454.9 853.3 456.6 854.2 460.2 855.3 458.4 856.8 458.7 856.9 456.3ZM826.9 447.9L821.4 447.5 820.4 450.6 819.3 451.6 817.9 455.5 815.6 456 811.7 455.5 810.1 456.9 806.5 457.3 804.6 455.7 804.1 453.9 802.5 455.7 802.6 460.7 803.9 463.1 805.3 463.8 805.7 467.6 809.8 467.7 810.8 469.1 814.1 468.1 817.5 469.1 818.6 470.8 821.7 469.6 822.1 470.6 823.2 466.3 823.3 463.6 825.9 461.7 825.8 459.1 826.7 457.3 830 456.9 826.9 454.4 827.4 453.1 825.4 450.5 826.9 447.9ZM793.5 475.7L793.6 471.4 794.3 467.9 792.9 466.2 790.9 465.9 786.9 461.4 788 459.1 785.9 457.9 784.3 455.5 781.9 453.6 779.1 453.6 772.8 447.6 770.4 444.9 764.3 444.2 764.5 445.6 769.5 450.2 771 452.6 773.5 454.4 775.3 458.9 777.7 461.2 779.9 465.1 784.5 471.1 788.1 473.4 790.4 475.7 793.5 475.7Z" data-id="ID" data-name="Indonesia" id="ID"/><path d="M721.1 369.3L718.4 367.2 717.6 363.6 719.6 364.1 719.7 362.4 718.6 360.7 718.9 358 715.9 354 713.2 356.9 710.1 357.4 705.9 356.5 704.5 358 706.5 363.2 708.7 364.8 706.4 366.7 706.4 369 703.7 372.2 702 375.4 699.1 378.8 695.9 378.5 692.8 381.8 694.6 383.2 694.9 385.6 696.5 387.1 697 389.7 690.9 389.7 689.1 391.8 692.3 394.3 693.2 395.5 691.8 396.6 695.4 400.2 697.4 400.6 701.4 398.8 702 405.1 703.9 414.5 706.5 418.4 707.6 423.8 709.1 426.5 712.4 434.6 715.1 437.3 717.1 434.5 719.6 433.8 718.8 432.8 720 430.7 721.5 430.5 721.5 425.7 722.7 423 721.9 416.9 722.8 414.8 728 412.9 728 411.5 735.9 404.3 739.9 402.3 741.4 400.6 741.2 398.4 746.5 397.8 746.9 396.7 745.5 391.9 746 390.1 744.3 389.3 746.7 387 744.6 385.4 745.6 383.3 749.1 384.8 749.4 387 756.2 387.8 754.9 390.4 752.8 392.3 754.3 393.9 755.6 392 757 396.7 758.4 396 758.8 390.6 761 391.3 763.9 384.7 763.8 382.9 767.4 380.8 769.4 381.3 770.1 378.8 769.9 377.7 766.9 377.2 767.9 375.9 766.6 373.9 764.6 375.2 762.3 374.4 759.1 376.5 756.6 378.8 754.3 379.2 755.4 380.2 755.3 382.1 748.9 382.5 746.4 381.3 746.3 380.7 746.1 378.2 744.4 378.9 744.2 380.2 744.2 383.4 741.9 383.5 736.4 382.5 734.8 380.9 731 380.5 722.1 376 723.2 373 725 371.5 721.1 369.3Z" data-id="IN" data-name="India" id="IN"/><path d="M476.9 277.6L473.1 281.3 474.6 286.1 472.3 290.8 476.3 291.5 481.2 288.8 483.3 284.7 482.8 281.4 479 280.5 479.6 278 479 275.4 476.9 277.6Z" data-id="IE" data-name="Ireland" id="IE"/><path d="M624.2 339.2L622.3 340.3 623.2 344.3 622.7 345.4 624.2 348.2 624.2 348.2 626 352.4 627.8 353.4 628 355.4 626.6 356.5 626 359.2 627.9 362.3 631.3 364.1 632.7 366.6 632.3 369 634.7 372.4 635.7 371.1 637.5 372.2 639 371.7 642.9 378.9 645.6 379.8 648.4 382.2 651.8 383.2 658 381.7 659.2 385.5 665.3 386.6 670.6 387.5 671.6 384 675.6 382.4 674.1 380.4 674 377.7 671.3 376.3 670.2 374.4 668.8 372.7 671.3 369.8 671.1 367.7 669 367.1 667.9 362.4 669.1 360.6 667.9 360.1 668.6 357.7 669.8 353.5 669.5 350.6 667.5 350.5 664.3 347.4 662.1 347 659 345.2 654 345.5 652 347.5 649.6 348.1 649.3 348.9 645 349.9 641 349.3 639.1 347.5 636.5 346.8 635.6 344.2 633.2 342.5 634.1 340.8 632.3 340 629 342.6 628 342.7 626.1 342.2 624.7 340.6 624.2 339.2Z" data-id="IR" data-name="Iran" id="IR"/><path d="M617.5 348L616 350.2 614.5 351 614.8 353.5 613.7 357.6 607.6 361.1 608.7 365.1 612 366 616.2 368.3 624 374.8 629.2 375 631.2 371.9 633.1 372.2 634.7 372.4 632.3 369 632.7 366.6 631.3 364.1 627.9 362.3 626 359.2 626.6 356.5 628 355.4 627.8 353.4 626 352.4 624.2 348.2 624.2 348.2 622.8 348.8 621.9 347.9 618.6 347.5 617.5 348Z" data-id="IQ" data-name="Iraq" id="IQ"/><path d="M459.8 210.2L455.2 209.7 450.6 213.4 447.1 211.5 442.9 215.2 438.6 210.5 434.4 211.5 432.5 216 438.4 217.5 438.5 219.5 433.6 220.7 439.6 223.9 436.9 226.7 448.3 229.6 458.6 224.2 462.3 219.2 459.1 214.6 459.8 210.2Z" data-id="IS" data-name="Iceland" id="IS"/><path d="M598.6 361.5L598.3 362.1 597.4 362.1 597.3 362.1 596.9 362.9 596.4 365.4 595 368.2 595 368.2 596.6 372.9 596.9 373.7 598.2 368.6 598.2 367.3 596.9 367.8 597 366.1 597.6 363.9 598.6 364.4 599.1 363.3 599 363.3 599.4 362.8 599.3 361.5 598.6 361.5Z" data-id="IL" data-name="Israel" id="IL"/><path d="M543 344.5L538.1 345.2 534.9 344.9 534.5 346.7 541.9 350.1 542 347.3 543 344.5ZM525.5 333.8L522.6 334.7 523.3 336.8 523.4 341.2 524.4 342.1 526.8 341.2 527.2 336.4 525.5 333.8ZM529 311.8L528.7 313.5 527.5 314.1 525.5 313.6 524.9 315.3 520.2 316.3 519 315.4 518.9 316.6 519.7 318.1 518.7 319.3 519.4 322.3 520.9 322.8 520.6 324.4 521.8 324.2 524.7 321.8 528.3 323.6 529.2 327.3 535.7 333.6 537.8 333.9 540.8 336 544.7 341.9 544.1 342.7 544.7 345.4 546.1 342.3 547.3 342.1 547.6 340.3 545.6 338.9 546.8 336.6 549.2 337.2 550.7 338.9 551 336.9 548.6 335 544.1 332.5 544.8 331.8 542 331 538.9 328 537.5 324.8 534.9 322.9 534.2 317.9 536.4 316.5 538.7 317 538 315.3 538.3 313.4 534.3 312.3 533.7 310.9 531 311.6 530.6 312.4 529 311.8Z" data-id="IT" data-name="Italy" id="IT"/><path d="M286.7 409L288.2 408.2 286.7 407.5 283.1 407.3 282.7 408 286.7 409Z" data-id="JM" data-name="Jamaica" id="JM"/><path d="M607.6 361.1L602.2 364.6 599.1 363.3 598.6 364.4 598.6 366.4 598.2 367.3 598.2 368.6 596.9 373.7 596.9 374.2 600 374.7 601.9 372.6 604 372.1 605.4 370.5 602.6 367.3 608.2 365.6 608.7 365.1 607.6 361.1Z" data-id="JO" data-name="Jordan" id="JO"/><path d="M873.4 358.5L871.4 357.8 870.2 359.2 868.7 358.8 867.1 360.8 867.1 362.4 868.9 363.4 869.7 361.4 871.1 360.6 872.2 361.7 873.8 359.7 873.4 358.5ZM891 348.3L890.9 344.7 893.5 341.1 893.6 338.2 892.1 333.1 889.1 333.8 888 336.1 888.4 340.2 886.7 344.6 881.1 349.4 879.2 347.8 876.3 353.9 873.3 353.2 867.8 354.2 865.8 356.5 863 358.3 861.5 360.4 858.9 361.4 860 363.7 861.8 364.6 861.1 367.6 862.5 368.8 864.2 367.5 866.1 361.9 863.3 359.4 866.5 359.4 869.8 357.8 874.6 357 874.8 359.6 876.6 360.8 880.6 357 885.4 356.8 889 355.2 890.4 352.8 890 351.1 891 348.3ZM899.1 322.6L897 321.3 893.7 317.2 892.1 325.6 889.2 325.8 887.8 328.7 888.2 332.4 891.2 332.4 892.8 328.3 897.1 330.9 899.5 327.1 903.7 326.1 903 321.8 901.1 323.4 899.1 322.6Z" data-id="JP" data-name="Japan" id="JP"/><path d="M682.1 277.9L680.8 279.1 670.4 280.8 669.1 282.4 671.1 285.5 668.5 286.7 669 288 666.3 290.2 670.8 293.3 670.1 295.3 666.2 295.2 665.4 296.5 661.9 294.2 657.5 294.3 654.5 296.1 651.2 294.3 645.1 291.3 640.8 291.4 635.1 296.2 634.7 299.4 631.9 296.8 629.7 301.6 630.5 302.4 628.9 305.6 631.2 308.5 633.3 308.3 635.1 311.1 634.8 313.2 636.2 313.8 638.8 313 642 311.2 644.3 312.2 647.1 312 647.6 314.5 647.1 318.3 644.7 317.8 642.3 318.4 642.2 321.3 639.5 320.9 641.1 323.1 642.4 326.6 645.6 327.9 645.5 330.7 645.6 331.6 646.8 330.4 650 329.6 651.9 330.7 653.8 333.6 655.2 333.4 655.1 319.4 662.3 317.1 669.3 321.7 672 325.2 680 324.3 683.3 327.1 683.1 330.9 684.5 330.9 685 333.9 688.6 334 690.4 335.8 691.6 333.1 695.2 330.5 696.8 329.8 697.4 328.2 699.3 327.7 703.8 329 704.3 326.7 705.8 325.9 709.8 327.5 710.8 327.1 719.5 327.6 720.9 329 722.6 329.5 722.4 327.4 724.3 326.4 721.8 319.7 727.3 318.1 728.7 317.2 730.7 310 736.2 311.4 737.7 309.5 737.9 305.4 740.2 305 742.3 302.2 740.8 299.6 737.2 300.1 736.1 298.3 734.1 297.5 732.8 294.9 731.3 294.2 727.3 295.3 723.5 292.7 722 295.1 715.8 283.6 712.2 279.9 713.3 278.5 706.3 282.9 703.6 283.2 703.9 280.6 700.3 279 697.4 280.2 696.5 275.2 691.6 274.1 689.1 276.2 682.1 277.9Z" data-id="KZ" data-name="Kazakhstan" id="KZ"/><path d="M614.2 448.5L613.1 447.6 609.7 449.9 605.7 449.4 599.3 444.6 597.9 444.1 596 446 594.3 447.6 595.6 449.6 597.2 454.1 596.2 456.2 594 459.3 594.7 460.3 594.5 462.4 604.6 468 604.7 469.6 608.7 472.4 609.8 471.5 611.3 468.5 611.7 466.6 613.4 465.2 615.3 464.1 613.7 461.8 613.7 451.7 616.1 448.5 614.2 448.5Z" data-id="KE" data-name="Kenya" id="KE"/><path d="M720.9 329L719.5 327.6 710.8 327.1 709.8 327.5 705.8 325.9 704.3 326.7 703.8 329 699.3 327.7 697.4 328.2 696.8 329.8 697.6 330.2 695.3 332.6 697.4 334 699.3 333.1 702.6 335 699.1 337.7 697 337.3 695.9 338.4 692.9 337.8 692.7 339.9 695.7 339.6 699.1 340.8 704.3 340.2 705.1 339.4 704.7 338.6 709.3 336.1 712.2 336.6 713.3 334.3 716.9 333.9 717.8 332.4 722.2 330.4 722.6 329.5 720.9 329Z" data-id="KG" data-name="Kyrgyzstan" id="KG"/><path d="M795.4 418.6L794.1 420.5 791.8 419.4 789.2 419 785.6 419.6 783.9 421.9 784.5 425.4 785.9 428.3 787 429.8 789.4 430.2 791.8 429 794.7 428.8 793.5 427.1 798.1 424.9 798.5 421.5 797.8 419.6 795.4 418.6Z" data-id="KH" data-name="Cambodia" id="KH"/><path d="M851.8 349.2L849.8 349.8 851 353.4 850.8 357.7 853.3 357.5 855.5 356.1 858 355.4 859.1 353.5 859.1 349.6 858.4 347.3 856 343.2 852.4 344.4 851.4 346 849.9 346.2 851.8 349.2Z" data-id="KR" data-name="Republic of Korea" id="KR"/><path d="M556.2 327.8L555.7 328.6 556.3 329.6 556.9 330 557.1 331.4 557.1 331.4 557.5 331.4 557.6 330.6 559.2 330.1 559.8 329.9 559.8 329.6 560.4 328.3 556.8 327.5 556.2 327.8Z" data-id="-99" data-name="Kosovo" id="-99"/><path d="M629.2 375L631.6 375.3 632.3 376.8 634.3 376.7 633.4 374.4 633.6 373.6 633.1 372.2 631.2 371.9 629.2 375Z" data-id="KW" data-name="Kuwait" id="KW"/><path d="M798.3 416.8L797.6 414.7 791.5 406.7 788.2 405 790.7 403.1 789.6 400.5 786.2 400.5 785 397.8 783.4 395.5 781.9 395.9 782.3 399.3 780.9 399.2 780.6 398.5 778.3 400.5 777.7 401.6 778.9 402.5 779 404.2 780.9 404.4 780.3 410.1 783.2 408.3 788.3 408 790.4 410.3 790.6 413.2 792.8 415.7 792.7 418.1 791.8 419.4 794.1 420.5 795.4 418.6 797.8 419.6 798.3 416.8Z" data-id="LA" data-name="Lao PDR" id="LA"/><path d="M600 359.6L601.5 358.4 601.1 357.1 599.8 356.9 599.8 357 598.4 359.4 597.4 362.1 598.3 362.1 598.6 361.5 599.3 361.5 600 359.6Z" data-id="LB" data-name="Lebanon" id="LB"/><path d="M475.8 438L475.2 439.1 472.2 436 471.6 436 470.3 437.3 469.1 438.9 468.9 439.7 468.3 440.6 470.1 442.4 472.5 443.9 475 446 477.9 447.3 478.6 447.3 479 443.6 476.5 438.9 476.6 438 475.8 438Z" data-id="LR" data-name="Liberia" id="LR"/><path d="M569.1 366L564.4 365 563.5 363.6 559.7 362.9 557.8 363.3 555 366.5 555.6 369 552.9 371.3 550 369.7 543.6 367.7 542.3 364.8 535.1 363.1 531.9 361.9 531.7 364.5 527.6 367.7 527.7 370.4 526.3 371.1 527.2 374 526.9 378 526.9 383.1 525.8 384.4 528.6 389.7 529.9 389.1 532.1 390.5 533.3 392.4 537.7 393.7 539.2 395.4 541.2 394.3 544 392.6 555.1 398.4 566.1 404 566.1 402.8 569.3 402.8 569.3 396.9 569.3 385.7 569.3 374.6 568.5 372 568.8 368.6 569.8 367.1 569.1 366Z" data-id="LY" data-name="Libya" id="LY"/><path d="M725.3 442.2L726.4 441.4 726.8 438.5 722.3 432 721 436.6 721.5 440.6 722.8 442.8 725.3 442.2Z" data-id="LK" data-name="Sri Lanka" id="LK"/><path d="M578 548.5L581.3 544.3 579.2 542.4 574.9 546.3 577 548.8 578 548.5Z" data-id="LS" data-name="Lesotho" id="LS"/><path d="M570.8 270.6L569 269.3 566.2 269.7 561.6 269.4 558.4 271 559 275.1 561.9 275.9 563.1 276.7 562.8 278 563 279.2 564.5 279.7 565.1 281.2 567.8 281.2 570.8 279.4 571.5 276.7 573.7 275.2 573.5 273 570.8 270.6Z" data-id="LT" data-name="Lithuania" id="LT"/><path d="M517.3 299.2L516.8 298.3 516 298.4 515.7 300.8 516.4 301.2 517.2 301.1 517.3 299.2Z" data-id="LU" data-name="Luxembourg" id="LU"/><path d="M573.4 263.6L571 261.7 569.8 261.1 567.4 262 566.9 266 564.7 266.1 562.5 262.2 559.9 264 558.5 267.2 558.4 271 561.6 269.4 566.2 269.7 569 269.3 570.8 270.6 573.5 273 575.2 272.2 578.1 270.3 577.3 267.3 577 264.8 575.7 263.7 573.4 263.6Z" data-id="LV" data-name="Latvia" id="LV"/><path d="M492.8 355.1L489.9 354.3 487.3 354.6 485.6 353.1 483.6 353.1 480.8 358.7 476 361.6 474.2 363.8 472.8 368.3 473.5 372.3 467.6 378 465 378.4 461.8 382.8 460 383.9 458.9 387.5 455.7 391.7 452.9 397.2 452.8 398.6 459.1 398.3 460.6 395.9 461.5 391.8 465.3 388.5 466.6 384.6 468.4 382 475.6 381.2 475.5 379.6 476 379.6 475.9 375.8 480.4 373.5 485.5 372.1 486.5 370.5 489.8 369.3 489.9 366.8 492.7 365.4 496.4 364.8 494 355.1 492.8 355.1Z" data-id="MA" data-name="Morocco" id="MA"/><path d="M579 317L580.2 314.4 582.5 314 583 312.7 580.6 309.3 580.8 307.9 576.3 305.3 574.5 305.7 573.8 306.4 574.7 306.8 578 312.2 578.1 313.9 577.8 315.6 578.3 317.4 579 317Z" data-id="MD" data-name="Moldova" id="MD"/><path d="M638.8 497.4L636.4 493.1 635.5 496 632.3 500.3 628.4 503.8 623.3 505 621.9 508.5 623.3 514.4 623.1 516.3 620.5 520 620 522.2 622.1 531 625.9 532.9 630.6 530.9 637.1 510.1 638.3 502.7 639.2 504.4 638.8 497.4Z" data-id="MG" data-name="Madagascar" id="MG"/><path d="M176.3 366.9L179.6 373.6 183.4 376.7 182.2 379.3 182.5 381.2 188.5 384.7 188.9 388.6 194.1 392.5 194.8 394.4 194.4 390 193.1 389.9 190.4 382.7 187.3 379.2 185 375.1 182.9 372.9 181.2 367.6 181.7 366.3 186.2 368.4 187.1 372.1 191.6 378.7 193.1 378.9 193.8 381.1 196.9 383.3 196.5 385.2 199.3 387.2 200.7 389.2 203.5 391.5 208 398.6 207.7 401.2 206.8 401.5 208.8 404.8 211.8 406.5 212.9 407.8 215.8 408.7 232.2 415.5 235.8 414.1 241.1 415.6 244.2 418.7 244.2 416.6 245.5 414.3 249.1 414.3 247.6 410.8 247.6 409.2 250.2 409.2 252.8 409.2 252.7 408.8 254.6 407.2 255.1 407.2 255.7 407.2 256.4 407.9 259.1 400.3 259.2 398.8 254.4 398.4 249.6 399.8 248.2 404.9 246.5 406.1 238.1 408.2 237 407 234 406.2 230.4 400.9 228.8 394.1 229 390 230.6 385.1 229.5 385.2 225.4 383.6 224 379.9 220 374.1 218 372.8 215.8 372.9 214 375.4 209.6 371.7 208.7 370.1 204.6 366.5 199.8 366.5 199.8 367.8 192.1 367.8 181.6 363.9 181.8 363.3 175.1 363.9 176.3 366.9Z" data-id="MX" data-name="Mexico" id="MX"/><path d="M562.1 329.6L560.8 329.7 559.8 329.9 559.2 330.1 557.6 330.6 557.5 331.4 557.1 331.4 557.1 331.4 556.8 332.6 557.1 334.2 558.3 335.1 560.1 334.8 561.2 334 562.7 334.1 563.1 333.4 563.7 333.3 563.5 330.8 562.1 329.6Z" data-id="MK" data-name="Macedonia" id="MK"/><path d="M508.8 405.6L508.7 403.7 505.1 401 495.7 394.5 486.3 387.9 482.1 387.9 484.8 413.5 484.6 415.9 473.5 415.9 467.2 417.9 466.2 418.4 466.4 420.2 466.9 421.9 468 422.7 468.2 423.8 468.1 424.6 468.2 425.7 471.8 426.3 476.8 427.6 476.9 430.2 477.7 431 478.1 430.7 481 431.2 482.8 430.1 483.9 430.9 485 430.5 484.8 428.9 485.5 426.7 487.7 424.4 488.9 421.7 490.2 422.1 494.5 418.6 499.3 417.6 501 417.5 502.8 417.4 503.8 416.4 510.1 415.7 510.3 413.9 511.8 412 511.8 405.3 508.8 405.6Z" data-id="ML" data-name="Mali" id="ML"/><path d="M780.5 397.3L778.5 398.2 775.2 396.5 776.1 394 774.3 393.4 773.6 390.6 770.7 391.1 771 387.5 773.7 385 773.7 380 771.6 377.4 769.9 377.7 770.1 378.8 769.4 381.3 767.4 380.8 763.8 382.9 763.9 384.7 761 391.3 758.8 390.6 758.4 396 757 396.7 757 398.9 756 398.4 756.2 400.8 758.2 403.2 761.6 408 762.2 410.8 761.2 414.4 764.5 415.3 769.5 411.8 770.7 414.2 772.1 421.2 773.2 422.7 773 425.8 773.9 427.5 773.1 429.6 773.3 431.7 776.2 426.2 775.1 423.6 774.8 420.7 773 418.4 774.3 413.9 770.1 407.4 771.2 406.8 772.5 403.7 774.5 403.5 776.1 402.2 777.7 401.6 778.3 400.5 780.6 398.5 780.5 397.3Z" data-id="MM" data-name="Myanmar" id="MM"/><path d="M556.4 327.5L555.4 326.7 554.4 326.3 554 325.7 553.3 325.1 552.8 325.4 551.9 326.3 551.5 328.4 551.2 329 551.2 329 552.4 329.8 553.1 331 553.7 331.3 553.7 331.3 553.5 330.1 554.7 328.3 554.9 329 555.7 328.6 556.2 327.8 556.4 327.5Z" data-id="ME" data-name="Montenegro" id="ME"/><path d="M779.8 292.2L777.3 291.6 774.2 289.8 771.3 294.4 772.4 297 769.7 300 765.7 298.9 763 298.8 761.1 296.7 758.2 296.7 755.8 295.3 751.6 297.4 746.3 301.1 743.4 301.8 744.1 304.8 746.4 307 750.4 308.5 752.3 311.8 751.2 316.5 752.2 318.2 759.3 319.5 762.6 321.9 764.3 322.3 765.6 325.9 767.2 328.1 770.3 328 776 328.9 779.7 328.4 782.4 328.9 786.5 331.2 789.9 331.2 791.1 332.3 794.3 330.3 798.8 329 803 328.9 806.2 327.6 810.2 324.2 808.8 321.5 810.3 319 814.7 320.1 817.5 318 821.7 316.5 823.7 313.9 825.7 312.7 829.7 312.2 831.9 312.6 832.2 311.2 829.7 308.3 827.4 307 825.3 308.5 822.6 307.9 821 308.4 820.3 306.7 822.3 302.5 823.6 299.3 820.3 299.7 817.2 297.7 813.1 300.8 809.5 301.5 806.9 302.5 800.9 301.9 799.2 299.7 796.5 297.6 793.7 297.1 790.2 297.6 787.5 298.4 783.6 296.6 783.1 293.3 779.8 292.2Z" data-id="MN" data-name="Mongolia" id="MN"/><path d="M611.8 488.2L611.8 488.2 611.8 488.2 609.6 489.8 606.6 490.9 604.9 490.9 603.9 491.7 602 491.8 601.3 492.2 597.9 491.4 596.9 491.5 596.2 494.2 596.7 497.4 599 500.4 599.2 504.1 597.2 506.7 595.4 504.9 595.7 501.6 593.7 499.9 592.1 498.6 583.7 500.9 584 503 584.1 504 586.5 504 591.1 506.5 591.1 510.1 590.4 514.3 590.9 515.2 589.4 519.4 586.5 522.8 587.8 527 588.6 529.1 588.1 532.6 588.3 533.7 588.7 535 589 536.4 591.1 536.4 591.3 534.8 590.3 533.3 591.6 532.2 597.2 529.5 598.3 528.4 598.6 522.3 596.2 517.5 596.5 515.4 600.6 512.1 603.8 509 609.4 506.5 611.2 504.7 613.1 500.6 612.6 499.2 612.3 489.5 611.8 488.2Z" data-id="MZ" data-name="Mozambique" id="MZ"/><path d="M475.9 380.4L475.9 385.1 466.8 384.9 466.9 392.7 464.3 393 463.6 394.5 464.1 398.9 453.3 398.8 452.7 399.8 454.1 401.1 454.9 402.5 455.2 408.3 454.1 412.5 454.3 414.1 459.6 412.7 462.7 414.3 464.4 416.5 466.2 418.4 467.2 417.9 473.5 415.9 484.6 415.9 484.8 413.5 482.1 387.9 486.3 387.9 475.9 380.4Z" data-id="MR" data-name="Mauritania" id="MR"/><path d="M594.1 486.4L593.6 485.7 590.9 485.1 592.2 486.4 591.8 491.8 592.4 494.2 590.7 497.8 592.1 498.6 593.7 499.9 595.7 501.6 595.4 504.9 597.2 506.7 599.2 504.1 599 500.4 596.7 497.4 596.7 497.8 596.3 499.4 594.4 493.5 595.2 492 595 488.6 594 486.7 594.1 486.4Z" data-id="MW" data-name="Malawi" id="MW"/><path d="M778.2 442.6L777.9 444.7 779.3 448.5 781.2 451.8 787.1 456 789.1 455.8 788 452.4 787.1 451.7 786.7 445.9 783.9 442.4 783.3 442.1 780.5 443.6 780.3 442.2 777.6 441.5 778.2 442.6ZM820.2 444.3L819.9 447.4 818 448.3 816.7 446.9 815.4 448.6 813.4 450.8 808.9 451.9 808.3 454.3 806.2 454.8 804.1 453.9 804.6 455.7 806.5 457.3 810.1 456.9 811.7 455.5 815.6 456 817.9 455.5 819.3 451.6 820.4 450.6 821.4 447.5 826.9 447.9 829 447 828.5 445.6 830.4 445.5 830.5 444.4 826.4 442.8 826.3 441.6 823.7 440.2 822.3 442.4 820.2 444.3Z" data-id="MY" data-name="Malaysia" id="MY"/><path d="M559.3 510L552.6 509.6 550.7 508.2 539.4 508.3 535.5 507.1 532.5 508.2 532.7 510.4 535 513.2 537 518.6 539.9 524 540 527.6 542.2 537.5 543.3 539.8 545.3 542.2 546.7 540.6 548.2 542.8 552.7 543.4 555.2 541.8 555.2 530.4 555.2 521.5 557.9 521.4 558 510.9 564.3 509.8 565.4 511 568 509.9 569.6 509.2 569.6 509 568.5 508.3 566.7 508.1 564.4 508.8 559.3 510Z" data-id="NA" data-name="Namibia" id="NA"/><path d="M963.5 522.5L956.1 516.4 955.3 517.4 957.2 519.5 962.5 523.2 963.5 522.5Z" data-id="NC" data-name="New Caledonia" id="NC"/><path d="M533.3 392.4L523.8 398.1 515.7 404 511.8 405.3 511.8 412 510.3 413.9 510.1 415.7 503.8 416.4 502.8 417.4 501 417.5 500.8 418.9 502.8 423.5 506 424.1 506 426.1 506.9 425.2 507.9 425.2 510 426.9 510.2 424.3 512.1 420.9 515.1 420.6 517.9 421.7 521.6 422.1 525 423.6 528.1 422.3 532 422.1 538.8 424.6 539.3 424.5 539.4 423.6 540.2 423.5 540.5 422.1 538.7 422.1 538.7 420.2 537.6 419.2 538.8 415.4 542.3 412.6 542.4 408.9 543.5 402.9 544.1 401.6 543 400.6 542.9 399.7 541.9 398.9 541.2 394.3 539.2 395.4 537.7 393.7 533.3 392.4Z" data-id="NE" data-name="Niger" id="NE"/><path d="M538.8 424.6L532 422.1 528.1 422.3 525 423.6 521.6 422.1 517.9 421.7 515.1 420.6 512.1 420.9 510.2 424.3 510 426.9 509.9 427.8 510.5 429.5 507.6 435.7 507.5 442 509.9 442 512 442 514 443.8 516.4 447.6 520.7 447.2 523.6 446.2 525.6 441.5 530.7 441 532.6 440 533.9 436.3 535.4 435.2 537.6 429.3 540 427.1 540.4 425.7 539.3 424.5 538.8 424.6Z" data-id="NG" data-name="Nigeria" id="NG"/><path d="M257.6 423.3L256.9 423.3 260 426.4 261.3 427.6 262.3 428.5 267.3 429.5 268 428.9 267.6 428.4 268.5 424.7 268.4 421.4 269.2 417.6 269.4 417.4 265.8 418.4 262 420.7 259.4 420.9 259.4 422.3 257.8 423.1 257.6 423.3Z" data-id="NI" data-name="Nicaragua" id="NI"/><path d="M516.8 283.1L513.1 285 510.6 291.7 509.2 292.9 509.2 292.9 511.2 293.3 513.8 292.4 515.6 294.3 517.1 295.3 516.6 290.7 518.3 290.7 519.7 284.8 519.2 283.2 516.8 283.1Z" data-id="NL" data-name="Netherlands" id="NL"/><path d="M530.6 256.4L531.8 253.3 534.1 249.5 535 242.8 533.3 239.9 533.1 231.9 534.9 226.1 537.6 226.2 538.6 223.6 537.6 221.4 541.9 212 546.5 199 549.2 199.1 549.9 194.9 555.1 196.1 555.5 191.1 557.3 190.7 558.9 188.7 562 192.8 565.6 192.4 568.6 194.3 571.2 190.9 572.6 185.1 576.9 182.3 580.5 185.5 579.3 191.1 581.5 190.4 586.3 187.2 586.3 187.2 583.2 182.1 586.8 179.9 578.1 173.8 573.1 175.5 568.1 175.1 563.9 182 559.3 181.6 553.2 185.1 545.6 194.9 540.9 200.5 534.3 214.2 529.2 223.4 523.7 229.9 516.4 235 513.8 238.9 514.7 252 515.7 257.8 519.5 260.5 523.2 259.3 528.7 253.1 530.6 256.4ZM568.6 103.4L564.6 100.4 563.5 95.3 557.7 98 559.4 102.3 557.5 105.7 562.4 108.7 568.6 103.4ZM550.6 77L547.1 71.5 543.1 72 542 77.4 538 77.6 536.5 72.1 529 77.7 531.1 89.4 536.5 101.1 540.7 104.9 538.2 109.5 544.1 117.1 547.5 116.6 548.8 106.2 551.2 103.7 552.8 93.8 559.8 88.2 550.6 77ZM570.6 65.6L563.6 61.4 560.8 66.5 556.7 62.4 548.2 67.1 551.2 74.5 555.2 74.8 555.7 79.1 563.9 81.6 571.9 79.8 576 71.4 570.6 65.6Z" data-id="NO" data-name="Norway" id="NO"/><path d="M741.2 378.6L738 377.8 733.6 375.8 732.7 374.3 726.1 370.8 725 371.5 723.2 373 722.1 376 731 380.5 734.8 380.9 736.4 382.5 741.9 383.5 744.2 383.4 744.2 380.2 744.4 378.9 741.2 378.6Z" data-id="NP" data-name="Nepal" id="NP"/><path d="M979.9 584L979.3 582.5 977.3 584.1 974.6 589.9 972.9 591.9 966.8 596.1 963.3 599.9 961.8 602.9 962.3 604.3 965.3 604.6 967.1 605.9 969.6 606 973.2 603.1 975.5 596.5 977.9 595.1 980 595 979 593.2 983.3 587.2 982.5 584 980.5 585.5 979.9 584ZM984.3 567.1L983.5 564.1 981.3 563.2 979.8 561.3 978.8 561.6 984.5 571.4 984.2 576.3 982.2 577.6 982.1 578.9 985.1 580.3 986 582.3 984.4 585.3 986 586.8 988.2 585.4 991 580.2 991.5 577.6 993.6 577.7 995.1 572.5 993.7 572 992.1 573.4 988 572 987.6 569.3 986.4 568.4 986.3 570.8 984.3 567.1Z" data-id="NZ" data-name="New Zealand" id="NZ"/><path d="M656.4 388L655 388 653.2 393.5 653.1 394.7 654.4 396.9 652.5 402.8 644.2 405.7 646.4 410.6 647.3 412.6 648.6 412.4 660.3 405.5 659.9 403.6 662.2 401.5 665.9 395.3 662.9 392.1 657.7 390.1 656.4 388ZM655.5 384.5L656.4 385 656.7 383.7 656.3 383.5 655.5 384.5Z" data-id="OM" data-name="Oman" id="OM"/><path d="M711.3 352.6L710.5 350 708.4 348.4 706.8 348.8 699.3 350.5 697.6 352 698.6 355.2 697.2 356.6 696.6 359.1 694 359 695 361.2 693.3 362 692.1 364 692.3 366 685.7 367.9 684.1 369.8 684 372.5 680.4 373.8 673.5 374.3 668.8 372.7 670.2 374.4 671.3 376.3 674 377.7 674.1 380.4 675.6 382.4 671.6 384 670.6 387.5 674.5 387.1 679 387.1 684.1 386.5 686.2 388.8 687.1 391 689.1 391.8 690.9 389.7 697 389.7 696.5 387.1 694.9 385.6 694.6 383.2 692.8 381.8 695.9 378.5 699.1 378.8 702 375.4 703.7 372.2 706.4 369 706.4 366.7 708.7 364.8 706.5 363.2 704.5 358 705.9 356.5 710.1 357.4 713.2 356.9 715.9 354 711.3 352.6Z" data-id="PK" data-name="Pakistan" id="PK"/><path d="M284.4 434.5L279.3 432.6 278.4 433.5 272 434.4 272.1 433.8 271.1 432.8 270.6 434.6 270.2 434.9 269.9 436.5 270.2 437 275.2 437.7 275.7 439.3 278.1 438.4 276.8 436.9 280.6 434.4 281.9 435.2 283.1 438.5 284 439.3 285.2 438.2 285.8 437.3 285.5 435.3 284.4 434.5Z" data-id="PA" data-name="Panama" id="PA"/><path d="M304.8 469.9L303.9 469.8 305.7 467 303.6 465.7 299.4 466.2 297.3 465.8 295.7 462.9 291.7 459.6 291 459.8 291.3 462 290.5 463.8 287.5 466.7 284.1 467.8 281.9 472.1 280.3 473.2 276.9 471.7 277.3 468.9 275.1 470.6 274.2 472.6 275.6 475.2 274.7 476.5 278.8 479.4 280.8 482.8 286.1 493.6 288.5 497.3 288 498.1 289.2 500.5 291.3 502.3 296.3 505.4 301.8 508.3 302 509.5 304.8 511.2 306.2 510.5 307 509 308.7 505.8 307.5 503.4 307.7 501.4 308.8 499.9 309.6 494.5 307.2 490 305.6 490.5 304.3 490.1 304.5 485.9 302.2 487.5 299.8 487.5 298.7 486 296.9 485.8 297.5 484.6 294.8 480.4 295.5 478.7 297.2 477.9 297.8 474.1 303.7 471.2 306.2 471.4 304.8 469.9Z" data-id="PE" data-name="Peru" id="PE"/><path d="M850.5 436L850.1 433.6 847.8 432.2 848 434.4 846 434.5 845.6 435.7 843.5 436.5 842.5 435.2 839.2 437.1 838.6 440.2 842.8 437.6 844.6 439 843.7 440.3 844.5 442.3 847.8 443.9 848.6 442.6 847.7 440.6 849 439.1 850 442 850.5 436ZM843.9 430.8L844.1 428.1 842.1 430.8 842.5 428.9 841 429.1 839.4 432.4 841.1 434.3 843.9 430.8ZM828.7 433.5L832 430 831.5 427.7 830 430.5 825 436.1 828.7 433.5ZM838 426.2L838.4 430.3 840.1 429.5 841.5 427.1 838 426.2ZM848.1 425.4L847.3 424.4 844.7 424.3 846.4 427.6 844.8 427.3 846.1 431.2 848.9 428.6 848.1 425.4ZM837.1 422.9L836.1 421.8 833.7 421.7 836.3 425.3 837.1 422.9ZM836.5 407.2L834.8 407.2 833.9 409.8 833.6 414.4 832.5 413.4 834.6 420.6 835.9 421.2 838.5 420.8 840.2 422.5 840.9 421.5 844.1 424.4 843.8 420.8 840.3 419.2 837.6 419.3 837 417 837.4 414.7 839.1 413.7 839.8 411.3 836.5 407.2Z" data-id="PH" data-name="Philippines" id="PH"/><path d="M932.3 478.4L928.5 473.7 929.1 475.8 932.3 478.4ZM921.5 474.6L922.5 472.9 920.3 471 920.6 472.6 918.3 474.6 914.1 474.9 911.6 474.5 915.2 477 916.7 477 920.1 474.9 921.5 474.6ZM891.1 466.6L891.1 475.7 891.2 484.8 894 484.9 895.6 485.4 897.8 484.4 897.4 482.4 901.4 480.7 905.1 481.9 908.1 485.9 910.2 487.7 915.4 488.4 916.1 489.1 918.2 488.1 914.1 484.7 912.5 484.8 910.7 481.8 908.2 480 907.6 478.1 910.2 477.8 909.5 476.3 904.9 474.6 901 470.1 895.9 468.6 891.1 466.6ZM924.7 471.9L918.6 466.4 919.9 467.8 924.7 471.9Z" data-id="PG" data-name="Papua New Guinea" id="PG"/><path d="M551.9 278.7L551.6 277.5 548.9 276.7 541.1 280.5 539.2 281.9 539.8 284.3 539 285.5 540.5 291.1 541.6 294 543 295.4 545 295.8 546.4 297.9 546.8 296.8 548.7 297.3 549 298.6 551 298.9 552.3 301 552.4 301.2 553.6 300.7 555 302.2 559.9 301.1 562.6 302.7 563.2 303 562.5 301.1 565 297.5 566.6 295.8 565.3 291.9 565.2 289.9 564.3 287.8 566 286.9 565.3 283.3 565.1 281.2 564.5 279.7 563 279.2 557.9 279.3 554.5 278.8 551.9 278.7Z" data-id="PL" data-name="Poland" id="PL"/><path d="M318.1 408L313.9 407.1 313.7 408.8 318.1 408Z" data-id="PR" data-name="Puerto Rico" id="PR"/><path d="M862.3 329.4L860.5 327.1 859.4 329.3 855.2 330.9 855.6 332.8 853.2 332.7 851.9 331.5 850 334.2 846.9 336.1 844.6 338.5 846 339.4 847.8 340.4 845.9 344.9 848.6 345.5 849.9 346.2 851.4 346 852.4 344.4 856 343.2 854.4 341.6 853.7 339.1 856.8 337.5 859.7 335 859.6 332.3 861.7 329.8 862.7 330 862.7 330 862.7 330 862.7 330 862.3 329.4 862.3 329.4Z" data-id="KP" data-name="Dem. Rep. Korea" id="KP"/><path d="M475.1 332.5L475.6 333.9 474.9 339.1 473.8 340.4 475.5 344.4 475.3 349.3 478.2 349.4 479.3 348.5 480.3 341.7 479.2 339.5 480.4 339.2 481 334.1 482.3 333.1 481.5 331.3 477.8 331.6 477.1 329.8 474.9 331.3 475.1 332.5Z" data-id="PT" data-name="Portugal" id="PT"/><path d="M338.6 515.7L336 514.2 333.5 514.1 328.6 515 327.2 519.2 326.1 522.7 331.2 527.7 333.5 528.1 336.9 530.4 339.8 531.6 340.2 532.9 337.4 537.6 343.3 539 345.5 538.5 348 536.1 348.5 533.3 349 531.6 348.4 527.5 347.4 528 343.4 522.3 342.2 522.8 339.3 522.3 339.5 518.2 338.7 516.6 338.6 515.7Z" data-id="PY" data-name="Paraguay" id="PY"/><path d="M597.6 363.9L597 366.1 596.9 367.8 598.2 367.3 598.6 366.4 598.6 364.4 597.6 363.9Z" data-id="PS" data-name="Palestine" id="PS"/><path d="M643.1 387.1L643.1 385.3 640.7 386.3 640.9 388.5 641.8 389.1 642.5 388.9 643.1 387.1Z" data-id="QA" data-name="Qatar" id="QA"/><path d="M572.7 306.4L569 308.4 567.7 307.4 564.2 306.9 563 307.8 561.3 308.6 560 311.4 558.3 314.1 556.1 314.9 557.6 316.5 559.6 318.7 559.8 320.3 562.3 321.7 562.8 322.3 563.6 323.9 570.9 324.5 575.6 322.6 579.2 324.4 580 319.7 580.8 320.1 582.2 319.2 582.1 318.2 580.8 317.5 579.5 318.2 578.3 317.4 577.8 315.6 578.1 313.9 578 312.2 574.7 306.8 573.8 306.4 572.7 306.4Z" data-id="RO" data-name="Romania" id="RO"/><path d="M898.4 295.6L897.3 291.1 897.3 286.6 895.7 279 894.4 279.7 895.5 281.9 893 284.1 892.7 290.3 894.3 294.7 894.2 300.5 893.6 303.7 893.9 308.2 893.6 312.2 894.1 315.5 895.9 312.4 898 314.9 898.1 312 895.4 307.8 897.1 301.8 901.2 303.2 898.4 295.6ZM562.8 278L563.1 276.7 561.9 275.9 559 275.1 555.2 276.7 554.5 278.8 557.9 279.3 563 279.2 562.8 278ZM14.6 209.3L14.8 204.9 7.6 197.7 0.8 191.9 0.8 220.2 2.3 217.4 1.1 214.2 4.4 212.6 3.8 215.1 5.3 217.5 8.5 216.6 11.3 217.7 11.9 220.5 15.6 222.4 17.7 224.7 20.3 224.9 21.4 223.5 21.5 217.1 26 216.4 28.8 213.5 23.4 207 15.8 205.9 16.5 211 14.6 209.3ZM999.2 176.8L999.2 170.9 995.7 174.5 996.2 177.2 999.2 176.8ZM4.4 176.3L7.3 174.2 7.5 173 3.5 170.5 0.8 170.9 0.8 176.8 4.4 176.3ZM898.3 155.3L897.9 152.8 894 149 890.5 150 887.9 153.8 888.4 154.3 894.1 155.4 898.3 155.3ZM918.1 136.3L911.1 133.5 905.9 131.8 905.3 135.4 910.4 139.6 914.8 140.5 918.1 136.3ZM902.4 131.1L892.4 125.1 885 124.6 881.4 126.7 879.9 134.4 885.4 141.3 890 138.8 900.2 139.1 902.4 131.1ZM659.6 177.7L654.3 170.7 653.7 163.2 658.1 154.2 662.2 144.5 670.8 134.4 679.3 129.1 689.1 123.4 691 119.8 689 115 683.6 116.6 678.9 121 669.7 123.2 660.5 130.6 654.3 136.3 655 141.2 648.4 150.1 651 151.3 645.5 159.5 645.5 164.5 642.7 166.5 643.1 171.2 648.1 173.6 648.9 177.4 657.9 178.4 659.6 177.7ZM586.3 187.2L581.5 190.4 579.3 191.1 578.9 196.4 583.1 201.4 580.6 206.8 583.8 214.7 581.9 220.4 584.4 225.2 583.3 229.3 587.4 233.5 586.4 236.6 577.9 247.3 577.9 247.3 580.8 250 577.6 253 577.6 253 578 254 576 257.1 576.9 262 575.7 263.7 577 264.8 577.3 267.3 578.1 270.3 581.1 271.5 581.5 272.7 582.9 272.2 585.6 273.3 585.3 276.9 587 280 590.7 283.8 589.6 284.8 587.4 284.7 586.8 285.1 587.5 286.6 588.2 289.5 588.2 289.5 589.2 289.7 589.9 288.7 593.6 288.5 595.4 291 594.9 293.3 597.1 293.5 598.1 295.5 598.1 296.3 601.6 297.8 603.7 297.2 605.4 299.2 607 299.1 611.1 300.5 611.2 301.8 610 304 610.6 306.3 610.2 307.7 607.5 308 606.1 309.1 606 311 608.5 310.3 608.6 311.2 604.5 312.9 606 314.4 603.7 317.8 601.7 318.4 604.1 320.7 607.3 322.2 610.8 325.4 611.2 325 613.5 325.6 617.6 326.2 621.4 328.1 621.8 328.8 623.5 328.2 626.1 329 627 330.5 628.7 331.4 629.5 331.5 631.4 333.7 632.6 334 633.1 333 634.7 331.6 634.7 331.6 631.7 327.1 632 324.6 629.5 320.9 632.2 316.8 634.9 316.2 636.2 313.8 634.8 313.2 635.1 311.1 633.3 308.3 631.2 308.5 628.9 305.6 630.5 302.4 629.7 301.6 631.9 296.8 634.7 299.4 635.1 296.2 640.8 291.4 645.1 291.3 651.2 294.3 654.5 296.1 657.5 294.3 661.9 294.2 665.4 296.5 666.2 295.2 670.1 295.3 670.8 293.3 666.3 290.2 669 288 668.5 286.7 671.1 285.5 669.1 282.4 670.4 280.8 680.8 279.1 682.1 277.9 689.1 276.2 691.6 274.1 696.5 275.2 697.4 280.2 700.3 279 703.9 280.6 703.6 283.2 706.3 282.9 713.3 278.5 712.2 279.9 715.8 283.6 722 295.1 723.5 292.7 727.3 295.3 731.3 294.2 732.8 294.9 734.1 297.5 736.1 298.3 737.2 300.1 740.8 299.6 742.3 302.2 743.4 301.8 746.3 301.1 751.6 297.4 755.8 295.3 758.2 296.7 761.1 296.7 763 298.8 765.7 298.9 769.7 300 772.4 297 771.3 294.4 774.2 289.8 777.3 291.6 779.8 292.2 783.1 293.3 783.6 296.6 787.5 298.4 790.2 297.6 793.7 297.1 796.5 297.6 799.2 299.7 800.9 301.9 806.9 302.5 809.5 301.5 813.1 300.8 817.2 297.7 820.3 299.7 823.6 299.3 826.9 300.9 830.8 298.2 830.8 296.3 833.3 291.6 834.9 290.2 834.8 287.7 833.3 286.6 835.6 284.3 839 283.4 842.7 283.3 846.9 284.7 849.3 286.4 853 295.6 854.1 299.9 858.9 301.2 862.2 304.2 863.3 308.1 867.5 308.1 869.9 306.5 874.5 305.3 873 309 872 310.5 871 314.9 869.1 318.8 865.8 318.1 863.4 319.5 864.1 322.8 863.7 327.3 862.3 327.4 862.3 329.4 862.3 329.4 862.7 330 862.7 330 862.7 330 862.7 330 863.1 328.8 866.9 326 868.6 327.8 870.4 327.8 874.1 325.6 883.4 314.2 884.3 311.4 888.5 305.4 889.7 298.6 889.9 293.4 892.1 288.9 892 285 888 279.9 885 279.6 883.2 281.9 880.5 280.9 879.1 277.9 874.8 277.3 885.4 265.6 894.4 255.4 903.5 253.8 912 254.7 915.4 252 919.7 252.9 919.5 256.8 923.8 256.2 930 254.8 927.7 251.5 934.7 242 941.8 240 944.1 247.1 951.1 240.8 952.8 235.9 956.2 235.4 953.9 243.7 948.9 248.2 944.2 253.9 939.2 260.6 934.9 261.8 934.8 264.2 932.4 267.3 931.1 274.2 932.6 284.7 933.8 291.4 934.9 294.4 938.9 290.3 939.7 285.6 943.8 284.5 944.8 279.2 949.6 276.7 948.5 274.6 949.7 270.5 952.2 270.3 952.6 262.9 949.5 261.8 949.4 259.6 952.7 254.5 953.6 250.9 957.3 251.6 960 249.3 961.2 251.3 968.4 246.9 972.4 250.8 973.4 248.3 981.7 240.7 984.2 240.1 991.9 235.6 997.1 236.9 997.8 235.3 997.5 232.8 996.2 231.2 994.5 226 992 222.6 995.6 223.1 999.2 191.9 995.3 188.4 987.4 184.6 981.6 185.1 972.7 182.9 971.5 186.4 973.8 191.5 970.3 193.9 965.5 187 960.2 187.9 955 186.3 950.1 186.5 946.4 188.2 942.9 185.9 943.3 179.9 941 176.5 935.5 175.1 924.3 176.7 917 170.1 914.6 164.8 889.6 158.8 885.9 162.8 887.9 171.1 883.4 169.9 881.3 172.4 876 169.7 871.3 172 866.8 168.1 864.1 177.1 859.8 173.7 856.3 166.8 857.9 163 856.6 157 852.2 151.9 847.7 152 841.9 150.3 841.7 157.6 830.1 156.2 829.4 151.7 820.5 150.1 816.1 151.6 814.9 154.2 813.5 147.8 811 149.7 806.9 147.2 803.4 145.8 805.5 142.7 812.8 136.9 815.9 133.7 816.5 127.9 814.3 123.6 808.1 117.8 800 117.6 797.4 120.5 796.7 114.6 790.4 112.7 794.2 109.6 789.4 105.4 782.9 110.7 780.2 116 779.5 121.1 774.4 120.9 768.1 127.1 765.9 124.5 758.6 125.6 757.7 128.7 750.3 130.2 744.9 135.7 741.8 136 738.5 142.9 740.8 148.2 734.8 149.5 728.1 149.1 723.3 151.1 723.6 161.3 726 168.8 720.9 163.7 715.2 164.2 710.5 167.7 711.8 174 708.8 172.5 709.9 163.9 708.4 158.7 707.1 159 707.7 165.5 702.7 171.5 706.3 178.5 704.1 186.6 704.8 191 707.8 191.7 706.5 196.7 708.2 200.9 705.8 204.4 705 207.9 702 209.7 700.9 212.2 697.7 211.2 703.1 201.1 704.3 196.1 701.3 191.4 701.9 180.5 701 174.6 699.3 171.8 701.9 164.6 701.3 159.5 694 157 691.9 158.9 690.1 167.2 685 175.1 685.1 177.8 686.5 184.2 685.6 188 689 188.8 689.1 190.5 691.9 194.5 690 198.5 680 189.7 676.1 187.3 667.9 184.9 666.5 187.5 669.4 192 666.2 197.1 663.1 192.5 659 195.7 653.8 195.9 651.8 198.4 648.3 197.6 651.1 193.1 649 192.7 639.3 199.2 633.5 202.6 632.8 207.2 628.5 208.7 626.4 206.3 626.3 202.3 629.9 201.4 628.3 197.3 620.5 194.9 622.6 199.5 621.2 203.9 623.5 208.1 621.9 212.9 619.3 210.5 616.7 210.1 610.3 216.7 612.1 221.6 609.8 223.2 603.1 219.1 601.3 221.6 603 224.3 602.7 227.4 596.9 223.8 596.6 214 592 209 594.1 208.1 606.5 213.4 611 211.5 614.1 207.9 613.9 203.1 611.8 199.6 601.3 191.1 593.7 189.2 589.1 184.4 586.3 187.2 586.3 187.2ZM791.4 97.3L792.2 91.6 785.2 83.4 783.1 82.4 780.9 84.1 775.8 102.5 791.4 97.3ZM641.8 63.3L642.9 60.7 638.8 56.9 636.2 59.8 634.6 63.8 634 59.2 629.8 59.5 624.4 62.6 630.6 63.1 629 68.3 632 72.1 635.2 69.5 635.6 66.8 641.8 63.3ZM777.2 89.2L777.9 75.8 771.5 59.9 766.1 51 760.1 55 752.9 66.7 756.7 70 758.8 81.2 763.4 86.9 771.1 91 777.2 89.2Z" data-id="RU" data-name="Russian Federation" id="RU"/><path d="M582.7 463.4L582 463.1 581.2 463.9 581.1 465.6 580.8 465.8 580.5 467.3 582.2 467.5 583 465.9 584.5 466.1 584.5 466.1 585.3 465.8 585.5 464.1 584.4 462.6 582.7 463.4Z" data-id="RW" data-name="Rwanda" id="RW"/><path d="M475.5 379.6L475.6 381.2 468.4 382 466.6 384.6 465.3 388.5 461.5 391.8 460.6 395.9 459.1 398.3 452.8 398.6 452.7 399.8 453.3 398.8 464.1 398.9 463.6 394.5 464.3 393 466.9 392.7 466.8 384.9 475.9 385.1 475.9 380.4 476 379.8 476 379.6 475.5 379.6Z" data-id="EH" data-name="Western Sahara" id="EH"/><path d="M624 374.8L616.2 368.3 612 366 608.7 365.1 608.2 365.6 602.6 367.3 605.4 370.5 604 372.1 601.9 372.6 600 374.7 596.9 374.2 596.6 375.5 596.1 378.3 597.4 378.3 600.5 382.9 604 390 606.8 391.8 608.3 395.1 608.6 399 610.4 401.8 613.5 404.3 618.3 412.2 618.6 413.5 620.3 409.9 622.2 410.4 631.6 411.2 633.6 408.2 636.2 406.9 644.2 405.7 652.5 402.8 654.4 396.9 653.1 394.7 652.6 395.4 644.2 393.8 643.2 390.8 643.1 390.1 642.5 388.9 641.8 389.1 640.9 388.5 640.5 387.8 639 384.9 639.1 382.6 635.4 379.5 634.3 376.7 632.3 376.8 631.6 375.3 629.2 375 624 374.8Z" data-id="SA" data-name="Saudi Arabia" id="SA"/><path d="M602.2 411.7L603.1 410.8 605.1 410.3 606.5 408.7 605 407.6 604 406.9 602.5 400.3 603.1 399.8 602.2 396.9 591.2 396.9 580.5 396.9 569.3 396.9 569.3 402.8 566.1 402.8 566.1 404 566.2 415.6 563.9 415.4 562.4 419.9 561.5 420.8 560.8 424.2 561.8 424.1 563.4 427.6 563.4 428.3 563.7 429.5 565.3 431.3 565.1 434.5 566 435.3 566.3 435.4 567.1 435.1 568.1 434.6 569.5 430.8 571.5 430.4 574.2 433 575.2 432.6 580.3 433.2 583.2 430.7 585.5 432.4 587 432.1 589.9 428.5 589 426 592.1 425.4 592.1 429.5 593.8 433 594.2 433.1 594.2 432.7 595 429.8 597.8 425.7 599.5 424.3 600.6 421.5 601 419 600.7 417.8 601.9 413.6 602.2 411.7Z" data-id="SD" data-name="Sudan" id="SD"/><path d="M566.3 435.4L568.1 436.5 569.7 438.6 573.4 442.9 575.5 444 575.9 444.9 577.6 447.2 580.9 447.2 582.4 446.7 583.1 447.8 585.5 449.7 585.5 449.7 586.7 448.9 588.4 449.6 590.7 448.9 592.6 448.9 594.3 447.6 596 446 597.9 444.1 596.3 441.1 593.1 438 591.4 437.8 592.3 436.2 594.2 435.2 594.2 433.1 593.8 433 592.1 429.5 592.1 425.4 589 426 589.9 428.5 587 432.1 585.5 432.4 583.2 430.7 580.3 433.2 575.2 432.6 574.2 433 571.5 430.4 569.5 430.8 568.1 434.6 567.1 435.1 566.3 435.4Z" data-id="SS" data-name="South Sudan" id="SS"/><path d="M464.4 416.5L462.7 414.3 459.6 412.7 454.3 414.1 453.7 415.6 452.3 417.6 451.1 418.1 452.5 419.1 453.6 421.4 458.2 420.6 461.6 421.6 459.2 422.2 458 421.6 455.8 422.7 453.3 422.6 453.7 424.8 455.2 424.3 456.1 424.4 456.9 424.1 462 424.2 463.3 424.3 465.3 425 467.7 424.8 468.1 424.6 468.2 423.8 468 422.7 466.9 421.9 466.4 420.2 466.2 418.4 464.4 416.5Z" data-id="SN" data-name="Senegal" id="SN"/><path d="M949.6 488.7L947.4 487.9 948.5 489.6 949.6 488.7ZM946.1 486.9L942.9 485.2 942.8 486.3 946.1 486.9ZM948.4 486.2L946.3 482.6 945.9 484.3 948 486.7 948.4 486.2ZM943.4 482.6L939.2 479.8 938.8 480.1 943.5 483.2 943.4 482.6ZM936.9 479.9L934.2 477.8 934 478.2 936.9 479.9Z" data-id="SB" data-name="Solomon Islands" id="SB"/><path d="M470.9 436.2L469.2 431.4 466.9 431.4 463.3 434.6 463.6 436.7 464.1 437.7 465.5 439.2 467.5 440.4 468.3 440.6 468.9 439.7 469.1 438.9 470.3 437.3 471.6 436 470.9 436.2Z" data-id="SL" data-name="Sierra Leone" id="SL"/><path d="M252.2 419L251.5 419.2 250.2 420.5 250.1 421 250.9 421.6 252.4 421.8 256.2 422.6 256.5 422 255.8 420.3 254.5 420.6 253 419.2 252.2 419Z" data-id="SV" data-name="El Salvador" id="SV"/><path d="M619.7 427.4L618.6 428.9 618 429.9 619.1 431.5 620.1 432.8 621.1 433.8 630.2 437.2 632.5 437.2 634.5 434.8 635.7 433.1 635.7 427.6 635.8 427.6 635.8 427.6 629.4 429.2 622.4 430.3 620.6 427.9 619.7 427.4Z" data-id="-99" data-name="Somaliland" id="-99"/><path d="M616 463.4L616.6 462 619.6 458.6 629.1 451.5 634.8 444.6 637.2 440.5 641.6 429.7 641.8 425.8 636.6 427.5 635.8 427.6 635.7 427.6 635.7 433.1 634.5 434.8 632.5 437.2 624.7 445.5 621.1 445.7 618.6 447.6 616.8 447.7 616.1 448.5 613.7 451.7 613.7 461.8 615.3 464.1 616 463.4Z" data-id="SO" data-name="Somalia" id="SO"/><path d="M556.1 314.9L554.3 314.7 552.2 315.8 552.2 315.8 552.9 317.3 553.8 318.4 552.7 319.9 552.7 319.9 553.7 319.9 553 321.6 554.4 323.1 554 324.9 553.3 325.1 554 325.7 554.4 326.3 555.4 326.7 556.4 327.5 556.2 327.8 556.8 327.5 560.4 328.3 559.8 329.6 559.8 329.9 560.8 329.7 562.1 329.6 562.5 329.1 563.8 326.3 562.4 324.6 562.2 323.2 562.8 322.3 562.3 321.7 559.8 320.3 559.6 318.7 557.6 316.5 556.1 314.9Z" data-id="RS" data-name="Serbia" id="RS"/><path d="M341.5 442.8L341.1 445.3 339 448.2 341.5 451.7 343.2 454.2 344.7 454.4 344.8 452.5 345.9 452.7 347.2 452.4 348.8 453 349.5 451.8 349.7 450.6 350.2 449.4 349.1 447.7 348.9 445.8 350.3 443.4 347.4 442.7 345.1 442.9 344.8 443.4 341.5 442.8Z" data-id="SR" data-name="Suriname" id="SR"/><path d="M559.9 301.1L555 302.2 553.6 300.7 552.4 301.2 552.3 301 551.5 301 548.7 303.9 547.4 303.9 547 304.8 546.8 305.3 547.1 306.8 548.5 307.8 556.1 305.9 556.8 304.9 560.7 305.9 561.3 305.5 561.8 303.8 562.6 302.7 559.9 301.1Z" data-id="SK" data-name="Slovakia" id="SK"/><path d="M545.4 312L544.9 312 544.4 312.7 542 312.8 540.6 313.7 538.3 313.4 538 315.3 538.7 317 538 317.4 542.5 317.6 542.5 316.5 543.7 314.5 545.9 313.4 545.4 312Z" data-id="SI" data-name="Slovenia" id="SI"/><path d="M557.3 190.7L555.5 191.1 555.1 196.1 549.9 194.9 549.2 199.1 546.5 199 541.9 212 537.6 221.4 538.6 223.6 537.6 226.2 534.9 226.1 533.1 231.9 533.3 239.9 535 242.8 534.1 249.5 531.8 253.3 530.6 256.4 532.7 263.8 535 269.6 535.9 274.3 539.1 274 540.7 270.1 544 270.6 545.6 265.9 546.7 257.1 549.6 255.9 552.1 249.7 549.5 246.6 547.5 242.6 549.5 234.2 554.9 228.9 559.3 223.8 558.8 219.9 561.5 215.2 566.3 213.3 565.4 210.6 565.3 199.6 561 194.5 557.3 190.7Z" data-id="SE" data-name="Sweden" id="SE"/><path d="M586.9 533.1L585.1 535.4 586.8 538.1 588.4 537.8 589 536.4 588.7 535 588.3 533.7 586.9 533.1Z" data-id="SZ" data-name="Swaziland" id="SZ"/><path d="M613.7 357.6L614.8 353.5 614.5 351 616 350.2 617.5 348 614.3 348.6 612.8 348.5 609.6 349.8 605.9 349.2 602.8 350.1 601.9 349.5 600.3 352.9 599.6 354.3 599.8 356.9 601.1 357.1 601.5 358.4 600 359.6 599.3 361.5 599.4 362.8 599 363.3 599.1 363.3 602.2 364.6 607.6 361.1 613.7 357.6Z" data-id="SY" data-name="Syria" id="SY"/><path d="M555.1 398.4L544 392.6 541.2 394.3 541.9 398.9 542.9 399.7 543 400.6 544.1 401.6 543.5 402.9 542.4 408.9 542.3 412.6 538.8 415.4 537.6 419.2 538.7 420.2 538.7 422.1 540.5 422.1 540.2 423.5 541.3 425.3 541.5 427.2 541.4 429 542.9 431.6 539.3 431.5 538.7 432.8 542.8 438 542.4 438.8 544.7 438.6 549.8 437.5 552.4 435.4 552.2 434.4 555.6 434.3 558.2 433 560.3 430 561.7 428.8 563.4 428.3 563.4 427.6 561.8 424.1 560.8 424.2 561.5 420.8 562.4 419.9 563.9 415.4 566.2 415.6 566.1 404 555.1 398.4Z" data-id="TD" data-name="Chad" id="TD"/><path d="M500.1 428.7L499.9 429.6 501 431 502 436.3 501.4 438.8 502.9 443 505.2 442.4 504.5 440.4 504.6 434 502.1 430.2 502.5 428.7 500.1 428.7Z" data-id="TG" data-name="Togo" id="TG"/><path d="M792.7 418.1L792.8 415.7 790.6 413.2 790.4 410.3 788.3 408 783.2 408.3 780.3 410.1 780.9 404.4 779 404.2 778.9 402.5 777.7 401.6 776.1 402.2 774.5 403.5 772.5 403.7 771.2 406.8 770.1 407.4 774.3 413.9 773 418.4 774.8 420.7 775.1 423.6 776.2 426.2 773.3 431.7 772.5 434.4 772.7 437.7 773.2 436.1 776.5 440.4 777.6 441.5 780.3 442.2 780.5 443.6 783.3 442.1 781.8 440.7 780.2 440.4 778.6 438.8 777 433.8 775.2 433.7 775 431.7 777.4 425 777.6 421.9 780.1 421.9 779.7 424.1 782 424.1 784.5 425.4 783.9 421.9 785.6 419.6 789.2 419 791.8 419.4 792.7 418.1Z" data-id="TH" data-name="Thailand" id="TH"/><path d="M695.8 337.4L696 334.7 692.3 335.5 690.1 339.9 687.8 339.7 687 341.3 689.1 342.1 689.7 344.8 688.1 348.3 689 348.7 691 347.6 691.9 348.3 692.8 346.7 696.4 343.6 698.4 345.7 698.2 348.6 699.3 349.7 703.2 347.1 705.1 347.4 708 347.4 707.5 345.4 707.6 344 706 343.2 705 343.5 704.3 340.2 699.1 340.8 695.7 339.6 692.7 339.9 692.9 337.8 695.9 338.4 697 337.3 695.8 337.4Z" data-id="TJ" data-name="Tajikistan" id="TJ"/><path d="M684.6 345.4L680.9 343.9 673 338 671.6 334.2 670.7 333.6 667.7 333.7 666.6 333 666.3 330 662.6 328 660.3 330.2 657.9 331.5 658.4 333.4 655.2 333.4 653.8 333.6 651.9 330.7 650 329.6 646.8 330.4 645.6 331.6 646.5 334 646.8 331.3 649 330.4 649.8 332.5 651.8 334.7 649.4 335.9 646.8 335 646.1 338.1 648 338.3 647.3 340.7 649.4 342 649 345.7 649.6 348.1 652 347.5 654 345.5 659 345.2 662.1 347 664.3 347.4 667.5 350.5 669.5 350.6 669.8 353.5 672.6 354.8 674.7 354.3 675.3 352.8 679 351.2 679.6 348.4 681.9 347.8 682.3 346.5 683.7 347.5 684.5 347.6 684.6 345.4Z" data-id="TM" data-name="Turkmenistan" id="TM"/><path d="M849.3 484.8L853.2 482.8 849.3 482.9 846.9 483.5 846.6 484.2 846.9 484.7 846.9 485.6 849.3 484.8Z" data-id="TL" data-name="Timor-Leste" id="TL"/><path d="M331 431.2L328.9 429.4 329 430.5 331 431.2Z" data-id="TT" data-name="Trinidad and Tobago" id="TT"/><path d="M530.8 361.4L530.1 359.8 528.7 359.8 528.1 357.9 530 356.2 530.3 353.3 528.2 349.8 528.3 348 526.4 347.6 523.4 349 522.8 350.8 523.2 354.1 522.6 356.8 520.9 358.7 521.1 361.2 525.1 365.3 526.3 371.1 527.7 370.4 527.6 367.7 531.7 364.5 531.9 361.9 530.8 361.4Z" data-id="TN" data-name="Tunisia" id="TN"/><path d="M600.3 352.9L601.9 349.5 602.8 350.1 605.9 349.2 609.6 349.8 612.8 348.5 614.3 348.6 617.5 348 618.6 347.5 621.9 347.9 622.8 348.8 624.2 348.2 624.2 348.2 622.7 345.4 623.2 344.3 622.3 340.3 624.2 339.2 623.1 338.2 621.1 337.3 621.3 335.5 620.9 334.2 618.2 332.4 615.2 332.6 612 334.5 609.6 334.2 606.4 334.7 602.4 333.3 597.5 330.7 592.9 330.8 589.7 331.8 586.4 334.2 581.1 333.7 579.9 336.5 575.7 336.7 572.6 340.1 574.3 341.8 573 344.6 575 346.5 576.7 350 579.7 349.9 582.4 351.8 584.3 351.4 584.9 349.9 587.9 350.1 590.2 351.9 594.4 351.5 596.3 349.5 599.2 351.3 600.3 352.9ZM577.6 330.8L575.3 330.3 572.4 331.5 573.8 332.5 572.9 334.8 572.3 335.2 572.2 335.9 573.1 337.6 576.6 334.5 579.9 334.3 580.4 333.4 578 332.2 577.6 330.8Z" data-id="TR" data-name="Turkey" id="TR"/><path d="M836.1 394.5L838.2 387.8 837 386.9 834.7 389.2 833.1 392.2 833.4 394.4 834.9 396.9 836.1 394.5Z" data-id="TW" data-name="Taiwan" id="TW"/><path d="M584.4 462.6L585.5 464.1 585.3 465.8 584.5 466.1 584.5 466.1 584.7 467.2 585.3 467.8 583.5 470.8 582.5 471.8 582.2 471.8 582.1 473 583.1 475.7 582.4 476.8 584.7 478.7 584.9 480.4 586.3 483.3 587.5 483.8 589.3 484.3 590.9 485.1 593.6 485.7 594.1 486.4 594.3 485.9 595.8 487.4 596 490.4 596.9 491.4 596.9 491.5 597.9 491.4 601.3 492.2 602 491.8 603.9 491.7 604.9 490.9 606.6 490.9 609.6 489.8 611.8 488.2 611.8 488.2 610.8 487.6 608.7 483 609.5 479.2 607.6 477.4 607.4 475.8 608.7 472.4 604.7 469.6 604.6 468 594.5 462.4 594.5 462.4 592.2 464.9 593.3 465.8 587.8 465.9 588.4 462.3 588.4 462.3 588.4 462.3 585.3 462.2 584.4 462.6Z" data-id="TZ" data-name="Tanzania" id="TZ"/><path d="M592.6 448.9L590.7 448.9 588.4 449.6 586.7 448.9 585.5 449.7 585.5 449.7 585.3 452.9 586.5 453.3 583.4 456.5 582.9 457.8 582.7 460 582.1 461.1 582 463.1 582.7 463.4 584.4 462.6 585.3 462.2 588.4 462.3 588.4 462.3 588.2 461.2 589.5 459.6 593.9 459.1 594 459.3 596.2 456.2 597.2 454.1 595.6 449.6 594.3 447.6 592.6 448.9Z" data-id="UG" data-name="Uganda" id="UG"/><path d="M589.2 289.7L588.2 289.5 588.2 289.5 585.8 289.8 584.7 293 581.1 292.8 580.4 291.8 576.1 291.8 573 290.8 568.1 290.5 566.6 291.7 565.3 291.9 566.6 295.8 565 297.5 562.5 301.1 563.2 303 562.6 302.7 561.8 303.8 561.3 305.5 562.8 306.7 563 307.8 564.2 306.9 567.7 307.4 569 308.4 572.7 306.4 573.8 306.4 574.5 305.7 576.3 305.3 580.8 307.9 580.6 309.3 583 312.7 582.5 314 580.2 314.4 579 317 578.3 317.4 579.5 318.2 580.8 317.5 582.1 318.2 584.3 315.3 585.3 313.1 587.9 312.6 588 314.1 592.4 315.1 593.2 316 590 318.1 593 319.2 592.4 321.1 594 321.9 597.7 319.6 600.8 318.9 601.3 317.5 598.5 317.8 597.1 316.8 597 314.3 599.4 312.8 602 312.6 603.8 311.3 606 311 606.1 309.1 607.5 308 610.2 307.7 610.6 306.3 610 304 611.2 301.8 611.1 300.5 607 299.1 605.4 299.2 603.7 297.2 601.6 297.8 598.1 296.3 598.1 295.5 597.1 293.5 594.9 293.3 595.4 291 593.6 288.5 589.9 288.7 589.2 289.7Z" data-id="UA" data-name="Ukraine" id="UA"/><path d="M340.2 547.4L339.5 550 338.7 553.3 338 559.5 339.6 561.4 341.5 561.2 344.1 562.7 347.6 563 350.8 561.1 352 559 351.2 557.1 352.4 555.6 345.8 549.5 344.8 549.6 342 547.1 340.2 547.4Z" data-id="UY" data-name="Uruguay" id="UY"/><path d="M68.6 405.5L70.6 404.2 67.5 405.6 68.6 405.5ZM67.1 400.9L66.6 400.1 66.2 401.1 67.1 400.9ZM160.2 306.5L160.7 309.9 160 311 158.5 307.1 154.5 305.7 155.9 311.9 156.4 317.3 155.7 324.4 154.6 328 155.5 330.8 155.6 334 155 337.1 156.5 339 156.8 342 160.1 346.9 162.4 351.7 165.1 355.2 172.9 360.3 174.7 362.2 175.1 363.9 181.8 363.3 181.6 363.9 192.1 367.8 199.8 367.8 199.8 366.5 204.6 366.5 208.7 370.1 209.6 371.7 214 375.4 215.8 372.9 218 372.8 220 374.1 224 379.9 225.4 383.6 229.5 385.2 230.6 385.1 229.9 380.4 232.1 377.5 234.9 376.2 237.4 373.8 245.9 373.2 247.9 374.9 250 375 252 372.5 254.8 370.9 257.2 371.3 260.4 370.9 262.1 371.6 266.8 371.8 267.8 372.3 270.8 376.7 270.2 378.8 273.4 385.1 276.2 387.5 277.1 387.1 278 382 276.6 377 274 369.8 274.4 367.5 277.3 364 285.3 357.3 288.2 356.3 290 353.8 288.5 348.9 287.7 342.8 288.2 341.3 288.6 344.2 290 345.6 289.1 347.9 291.8 343.9 290.5 340 292.2 342 294.3 339.2 294.9 336.6 300.5 334.8 299.6 334.1 295.6 334.8 297.9 333.7 304.5 331.6 303.6 329.6 305.5 324.5 308.5 323.3 314.3 320.1 313.8 318.8 312 316.6 312 311.1 310.8 309.9 308.9 310.6 308 309.6 305.9 312.6 305 315.7 302 318.4 301.7 319.3 292.4 319.4 288.3 322.8 288.6 323.3 288.7 324.8 286.6 326.1 282.2 325.6 280.9 326.1 281.1 327.2 281.1 327.2 281.2 327.6 278.8 329.8 273.6 332.4 271.6 332.9 268.5 332 269.5 330.5 269.5 330.5 270.1 329.2 271.4 327.2 271.4 327.2 271.4 327.2 270.7 323.4 267.3 323.7 268.8 322.1 268.9 318.6 266.8 317 264.4 316.2 263 320.1 262.7 318.8 260.2 322.9 261 326.9 260.9 329.4 259.8 331.2 257.5 332.2 256.2 326.2 257.4 321.3 258.8 318.3 256.3 320.9 256 320.4 258.7 316.4 262.8 315.3 267.5 315.4 266.1 313.8 266.1 313.8 265.3 313.6 265.4 313.6 265.3 313.6 263.9 312.4 258.7 313.6 255.2 311.5 256.1 309.4 249.3 313.1 247.6 311.7 244.8 312.6 248.7 308.6 251.5 307.2 251.5 307.2 248.1 306.2 245.8 306.7 243.1 305.4 237.5 303.8 237 301.4 236.1 303.1 159.3 303.1 160.2 306.5ZM75.6 265.5L78 263.1 76.9 261.4 71 263.7 71.5 266.1 72.9 267.4 75.6 265.5ZM40.8 250.6L40.5 248.5 38.3 248 35.6 249 39.1 251.5 40.8 250.6ZM23.7 227.9L24.2 230.7 26.6 230.4 29.8 232.8 32.1 230.9 29.4 230 27.1 228.4 25.4 229 23.7 227.9ZM138 277L139.5 274.6 139.4 271.5 134.7 268.4 131.9 262.5 130.1 258.8 127.6 256.4 125.7 254.2 124.3 251.3 121.5 253.1 118.8 256.1 116.3 252.6 114.4 250.1 111.7 248.6 108.9 248.4 109 186 109 186 109 186 106 184.8 101.8 182.4 98.1 183.7 95.9 182.7 90.6 181.9 84.8 179.3 81.9 180.1 77.7 178.7 77.8 176.8 73.2 176.3 71.9 177.9 69.9 174.1 65.7 172.3 61.5 176.8 58.9 176.3 53.7 180 50.9 180.9 48.1 184.8 47.5 188.7 44 192.2 39 192.5 37.5 196.5 41.3 198.8 44 202 45.9 205.6 49.3 208.3 51.6 212.6 45.7 212.8 46.1 209.4 43.8 209.4 37.6 212.7 33.7 215.6 37.3 219.5 38.4 222.1 42.5 223.6 46.4 222.9 48.6 224.3 49.4 222.9 52.4 221.5 54.1 221.4 52 223.9 53.6 225.1 54.1 228 52 229.9 50 229.4 47.7 232.3 45.8 231.4 43.6 231.8 42.6 234.9 40.3 238.3 39.3 241.6 41.4 244.1 41.4 247.3 45.7 251.3 49.3 250.2 51 252.2 50.5 254.2 50.8 257.4 52.5 257.4 55.3 255.2 56.3 257.9 57 256 58.9 258.7 60.4 256.8 61.2 257.7 64.4 256.1 63 259.2 62.6 263.2 59.9 266 56 269 54.7 271.1 51.2 271.6 48.3 274.3 42.5 278.1 43 278.9 47.7 277.5 55.4 272.9 57.3 273.2 60.6 271.1 61.5 268.8 65.8 266.2 66.5 263.9 72.2 260.2 74.9 256.3 72.8 253.7 76.8 249.8 78.7 246.1 82.3 242.9 83 244.3 80.1 246.1 78.8 251.6 79.2 254.8 82.3 253.6 84.7 251.8 89.5 250.3 88.9 246.4 92 245.2 95.3 247.6 100.7 250.2 104.6 249.7 112.1 252.7 117.8 258.3 121.1 259.8 128.1 260.3 129.6 265.2 133.2 269.3 134 273.6 136.4 275.1 138 277 138 277Z" data-id="US" data-name="United States" id="US"/><path d="M695.2 330.5L691.6 333.1 690.4 335.8 688.6 334 685 333.9 684.5 330.9 683.1 330.9 683.3 327.1 680 324.3 672 325.2 669.3 321.7 662.3 317.1 655.1 319.4 655.2 333.4 658.4 333.4 657.9 331.5 660.3 330.2 662.6 328 666.3 330 666.6 333 667.7 333.7 670.7 333.6 671.6 334.2 673 338 680.9 343.9 684.6 345.4 684.5 347.6 686 347.6 688.1 348.3 689.7 344.8 689.1 342.1 687 341.3 687.8 339.7 690.1 339.9 692.3 335.5 696 334.7 695.8 337.4 697 337.3 699.1 337.7 702.6 335 699.3 333.1 697.4 334 695.3 332.6 697.6 330.2 696.8 329.8 695.2 330.5Z" data-id="UZ" data-name="Uzbekistan" id="UZ"/><path d="M333.2 435.5L331.7 435.5 331.3 433.3 329.2 431.9 327 431.7 326 430.4 328.4 429.5 321.6 429.7 320 431.3 317.9 431 316.3 429.7 310.9 430 309 427.5 307 427.4 306 425.4 305.4 427.7 302 428.8 303 431.9 302.3 434 301.2 434.2 300.1 431.9 300.5 427.5 302.1 427.2 302.2 426.5 300.4 427 297.8 430.3 296.7 433.9 299.1 436 300.4 440 305.6 440.1 307.5 442.5 312.2 442 313.2 442.5 311.9 446.9 313.3 450.2 311.9 451.6 313.7 453.2 314.5 455.9 316 457.4 318.7 456.4 322.3 454.1 321.5 448.9 320.2 448.2 325 449 325.8 448.3 330.9 446.8 331.9 445.8 331.6 445 329.7 442.9 330.4 442.1 330.4 440.8 334.3 436.1 333.2 435.5Z" data-id="VE" data-name="Venezuela" id="VE"/><path d="M783.4 395.5L785 397.8 786.2 400.5 789.6 400.5 790.7 403.1 788.2 405 791.5 406.7 797.6 414.7 798.3 416.8 797.8 419.6 798.5 421.5 798.1 424.9 793.5 427.1 794.7 428.8 791.8 429 789.4 430.2 791.4 431.8 790.6 433.7 791.7 435.5 795.1 432.9 797.4 430.5 802.9 426.8 803.2 421.8 802 416.5 800.3 414.2 797.8 412.4 793.1 405.6 793.7 403.5 796 400.7 799.7 398.2 796.9 397.4 795.6 396.2 796 394.5 793.5 393.9 792.1 392.8 789.8 394.4 784.9 394.7 783.4 395.5Z" data-id="VN" data-name="Vietnam" id="VN"/><path d="M963.5 501.3L962.1 500.4 962.2 502.6 963.9 503.6 963.5 501.3Z" data-id="VU" data-name="Vanuatu" id="VU"/><path d="M644.2 405.7L636.2 406.9 633.6 408.2 631.6 411.2 622.2 410.4 620.3 409.9 618.6 413.5 618.8 414.7 618.2 416.7 619 417.9 620.6 424.1 624.8 423.9 625.2 423.2 635 420.2 637.5 418.2 644.7 415.6 645.3 413.4 647.3 412.6 646.4 410.6 644.2 405.7Z" data-id="YE" data-name="Yemen" id="YE"/><path d="M585 522.5L584.1 522.8 582.8 522.3 581.6 522.3 577.7 524.5 575.2 526.7 573.5 529.9 571.9 530.1 569.4 533.3 567.1 533.1 564.7 531.9 563.3 532.6 559.9 536.4 557.9 536.7 557.6 533.7 555.9 530.8 555.2 530.4 555.2 541.8 552.7 543.4 548.2 542.8 546.7 540.6 545.3 542.2 547.3 546.3 550.5 552.1 550.6 554.6 549.7 555.2 551.1 559.8 552.3 561.3 555.7 562.5 557.4 561.2 562.6 559.3 565.4 559.1 568.4 559.8 573.3 558.5 576.2 557.2 583.4 550.4 585.7 546.4 589.3 542.7 590.4 538.7 591.1 536.4 589 536.4 588.4 537.8 586.8 538.1 585.1 535.4 586.9 533.1 588.3 533.7 588.1 532.6 588.6 529.1 587.8 527 586.5 522.8 585 522.5ZM578 548.5L577 548.8 574.9 546.3 579.2 542.4 581.3 544.3 578 548.5Z" data-id="ZA" data-name="South Africa" id="ZA"/><path d="M584.7 482.5L579.7 483.2 578.9 485 579.5 486.2 578.7 492.4 582.1 493.5 582.4 496.5 580.2 496.5 578.1 493.7 576 493.3 575.3 491.8 573.6 492.7 571.4 492.3 570.5 491.1 567.3 490 566.3 489.9 566.6 490.8 566.6 495.5 560.8 495.5 560.7 504.6 562.6 507 564.4 508.8 566.7 508.1 568.5 508.3 569.6 509 569.6 509.2 570.1 509.4 573.2 509.7 576.5 508.1 579 505.7 581.9 503.4 584 503 583.7 500.9 592.1 498.6 590.7 497.8 592.4 494.2 591.8 491.8 592.2 486.4 590.9 485.1 589.3 484.3 587.5 483.8 586.3 483.3 586.5 483.7 586 483.9 585.4 483.3 584.5 483.1 584.7 482.5Z" data-id="ZM" data-name="Zambia" id="ZM"/><path d="M589.4 519.4L590.9 515.2 590.4 514.3 591.1 510.1 591.1 506.5 586.5 504 584.1 504 584 503 581.9 503.4 579 505.7 576.5 508.1 573.2 509.7 570.1 509.4 571.1 511.8 572.6 514 575.7 517.2 577.7 520.5 579.9 520.9 581.6 522.3 582.8 522.3 584.1 522.8 585 522.5 586.5 522.8 589.4 519.4Z" data-id="ZW" data-name="Zimbabwe" id="ZW"/><path d="M526.5 330.3L526 327 523.7 329.9 524.3 332.4 525.6 333.1 526.5 330.3ZM504.5 294.7L503.7 298.3 497.3 301.6 494.6 299.8 495.5 304.6 490.9 303.5 487.3 304.4 487.5 307.5 491.8 309 493.8 311.1 496.7 315.4 496.2 323.2 494.7 325.5 495.8 327 500.9 328.7 501.9 327.9 505.1 329.6 508.3 329.1 508.6 326.8 512.6 325.6 518.1 326.6 520.6 324.4 520.9 322.8 519.4 322.3 518.7 319.3 519.7 318.1 518.9 316.6 519 315.4 518 313.7 516.7 314.3 516.7 312.5 519.9 309.5 520.7 308.8 521.1 305.9 522.5 303 518.5 302.2 517.2 301.1 516.4 301.2 515.7 300.8 513.3 298.9 511.9 299.2 508.7 295.4 507 293.8 504.5 294.7Z" data-id="FR" data-name="France" id="FR"/></g></svg>
